<svg width="752" height="675" viewBox="0 0 752 675" fill="none" xmlns="http://www.w3.org/2000/svg">
<g style="mix-blend-mode:overlay">
<path d="M531.536 569.056L531.144 568.238L532.641 567.213L528.462 558.862L528.129 561.624L526.224 569.874L526.407 570.33L527.967 569.831L528.359 570.649L523.761 572.982L523.37 572.164L524.625 571.279L519.479 560.835L518.014 561.359L517.623 560.541L522.315 558.233L522.707 559.051L521.356 559.911L525.605 568.384L525.887 565.811L527.843 557.372L527.495 556.769L525.815 557.337L525.423 556.519L530.115 554.212L530.507 555.03L529.156 555.89L534.303 566.334L535.742 565.905L536.134 566.723L531.536 569.056Z" fill="#313131"/>
<path d="M520.16 574.258C519.653 574.632 519.291 574.84 518.93 575.049C518.568 575.258 518.207 575.466 517.871 575.58C516.476 576.225 515.278 576.515 514.302 576.355C513.326 576.196 512.642 575.707 512.206 574.673C511.84 573.76 511.758 572.924 512.082 572.094C512.407 571.264 512.99 570.606 513.739 570.093C512.705 570.529 511.774 570.585 510.918 570.356C510.089 570.032 509.525 569.473 509.133 568.655C508.558 567.381 508.528 566.354 508.998 565.36C509.468 564.365 510.508 563.523 512.144 562.74C512.842 562.417 513.514 562.19 514.04 562.127C514.592 561.969 515.118 561.907 515.428 561.888C515.739 561.869 515.954 561.825 516.049 561.851L517.047 564.97L516.229 565.362L514.736 563.332C514.045 563.249 513.278 563.451 512.244 563.887C511.452 564.184 511.014 564.678 510.836 565.343C510.657 566.008 510.764 566.75 511.131 567.663C511.453 568.36 511.921 568.893 512.561 569.166C513.201 569.44 514.038 569.358 515.071 568.922L516.225 568.417L516.687 569.355L515.653 569.791C515.197 569.974 514.81 570.278 514.397 570.677C514.08 571.101 513.858 571.551 513.73 572.026C513.698 572.527 513.735 573.148 513.988 573.725C514.285 574.517 514.779 574.955 515.349 575.108C515.919 575.261 516.566 575.129 517.358 574.832C517.84 574.553 518.297 574.37 518.589 574.041C518.881 573.712 519.052 573.452 519.103 573.262L518.75 571.538L519.809 571.007L521.15 573.607C521.029 573.676 520.668 573.885 520.16 574.258Z" fill="#313131"/>
<path d="M504.937 579.754L506.446 579.445L506.812 580.358L504.435 581.249C504.073 581.458 503.522 581.615 502.945 581.868C502.367 582.121 502.006 582.33 501.765 582.469C500.18 583.063 498.912 583.232 498.057 583.003C497.202 582.774 496.543 582.19 496.202 581.182C495.905 580.389 495.824 579.553 496.123 578.818C496.326 578.058 496.91 577.399 497.633 576.982C496.505 577.392 495.547 577.543 494.718 577.219C493.888 576.895 493.229 576.311 492.888 575.303C492.383 574.149 492.473 573.053 493.063 571.989C493.654 570.925 494.815 570.013 496.736 569.306C497.193 569.123 497.529 569.009 497.96 568.921C498.847 568.649 499.424 568.396 499.64 568.352L501.922 567.436L502.194 568.324L500.773 569.064L504.937 579.754ZM497.033 570.098C495.879 570.604 495.13 571.117 494.737 571.826C494.343 572.535 494.45 573.277 494.721 574.164C495.088 575.077 495.556 575.61 496.196 575.884C496.836 576.157 497.672 576.076 498.706 575.64C499.86 575.134 500.627 574.932 500.988 574.723L499.024 569.511C498.618 569.505 498.041 569.757 497.033 570.098ZM500.296 576.167L499.383 576.534C498.59 576.831 498.057 577.299 497.784 577.939C497.511 578.579 497.523 579.295 497.915 580.113C498.211 580.905 498.68 581.438 499.225 581.686C499.769 581.934 500.606 581.853 501.639 581.417C502.096 581.233 502.458 581.025 502.914 580.841L503.276 580.633L501.424 575.757C501.183 575.896 500.847 576.01 500.296 576.167Z" fill="#313131"/>
<path d="M490.099 586.473L488.178 587.181L479.768 576.371L478.595 576.566L478.324 575.679L483.028 574.087L483.3 574.975L481.905 575.62L483.607 578.011L488.768 576.236L488.72 573.372L487.117 573.655L486.845 572.767L491.093 571.359L491.364 572.247L490.305 572.778L490.099 586.473ZM488.112 584.005L489.067 585.382L488.93 583.613L488.773 577.358L484.284 578.905L488.112 584.005Z" fill="#313131"/>
<path d="M475.483 577.158C476.623 577.464 477.497 578.004 478.269 578.923C479.041 579.843 479.668 580.928 480.002 582.341C480.361 583.66 480.436 584.902 480.2 586.163C479.964 587.424 479.399 588.393 478.574 589.191C477.749 589.988 476.76 590.64 475.536 591.025C474.648 591.296 473.476 591.491 472.138 591.541L471.517 591.578L470.761 588.319L471.984 587.934L473.141 590.078C473.332 590.129 473.712 590.231 474.117 590.237C474.523 590.244 475.074 590.086 475.721 589.954C476.488 589.752 477.116 589.309 477.579 588.721C478.043 588.132 478.367 587.302 478.406 586.396C478.445 585.489 478.345 584.342 478.03 583.239C477.714 582.136 477.278 581.102 476.671 580.328C476.063 579.555 475.43 578.876 474.695 578.577C473.96 578.278 473.08 578.144 472.192 578.415C471.546 578.548 471.064 578.826 470.823 578.965C470.582 579.104 470.29 579.434 470.118 579.693L469.894 581.67L468.721 581.865L468.408 579.235C468.623 579.191 468.985 578.982 469.467 578.704C469.854 578.4 470.215 578.191 470.672 578.008C471.033 577.799 471.585 577.642 472.136 577.484C473.195 576.953 474.342 576.853 475.483 577.158Z" fill="#313131"/>
<path d="M461.396 591.718C461.021 592.738 460.456 593.707 459.777 594.34C458.977 595.042 458.134 595.529 457.177 595.68C455.979 595.97 454.882 595.88 453.957 595.531C453.033 595.181 452.184 594.546 451.507 593.652C450.83 592.757 450.299 591.698 450.06 590.31C449.751 588.801 449.702 587.464 449.912 586.298C450.148 585.037 450.714 584.068 451.443 583.245C452.173 582.422 453.112 581.961 454.215 581.645C455.413 581.355 456.535 581.35 457.555 581.725C458.575 582.1 459.328 582.71 460.031 583.509C460.708 584.403 461.239 585.462 461.478 586.851L464.4 586.208L463.177 580.889L461.599 581.077L461.422 580.215L466.431 579.011L466.607 579.873L465.142 580.397L467.816 591.707L469.274 591.588L469.45 592.45L464.563 593.585L464.386 592.723L465.851 592.199L464.716 587.311L461.768 588.049C461.792 589.481 461.676 590.672 461.396 591.718ZM459.329 592.59C459.755 591.38 459.757 589.853 459.29 587.792C458.842 586.043 458.198 584.648 457.305 583.797C456.412 582.947 455.393 582.572 454.099 582.836C452.901 583.127 452.197 583.855 451.796 584.969C451.396 586.084 451.463 587.732 451.93 589.793C452.378 591.542 452.928 592.912 453.82 593.762C454.687 594.708 455.733 594.988 456.836 594.672C458.103 594.502 458.903 593.8 459.329 592.59Z" fill="#313131"/>
<path d="M440.122 590.906C439.558 590.348 438.735 589.618 437.868 588.673C437.235 587.994 436.862 587.487 436.533 587.195C436.203 586.903 435.944 586.731 435.754 586.68L435.063 586.597L434.887 585.735L437.137 585.319C437.448 585.301 437.802 585.498 438.201 585.91C438.6 586.323 439.233 587.001 439.91 587.896C440.751 588.936 441.384 589.615 441.948 590.173C442.416 590.706 442.866 590.929 443.297 590.841L444.47 590.645L443.531 585.403L441.884 585.471L441.707 584.609L446.734 583.715L446.885 584.672L445.446 585.101L447.473 596.543L449 596.545L449.151 597.502L444.245 598.326L444.145 597.179L445.609 596.655L444.697 591.318L443.093 591.601L440.272 597.567L441.825 597.474L441.976 598.431L437.475 599.263L437.324 598.305L438.763 597.876L441.825 591.77C441.325 591.738 440.71 591.37 440.122 590.906Z" fill="#313131"/>
<path d="M431.767 586.733C432.762 587.203 433.49 587.907 434.021 588.966C434.577 589.93 434.963 591.154 435.202 592.542C435.441 593.93 435.3 595.217 434.874 596.427C434.473 597.541 433.813 598.485 433.014 599.187C432.119 599.865 431.181 600.326 429.913 600.496C427.999 600.798 426.383 600.365 425.256 599.248C424.13 598.131 423.32 596.59 423.095 594.391C422.881 592.907 423.022 591.621 423.423 590.506C423.849 589.296 424.483 588.448 425.308 587.65C426.203 586.973 427.236 586.537 428.409 586.342C429.677 586.172 430.773 586.262 431.767 586.733ZM432.54 597.533C433.061 596.348 433.253 594.872 433.002 592.767C432.795 590.879 432.246 589.509 431.404 588.469C430.562 587.428 429.542 587.053 428.37 587.248C427.197 587.443 426.328 588.025 425.807 589.21C425.286 590.394 425.069 591.966 425.345 593.975C425.552 595.864 426.102 597.234 426.969 598.179C427.741 599.099 428.735 599.569 430.003 599.399C431.125 599.394 432.019 598.717 432.54 597.533Z" fill="#313131"/>
<path d="M420.394 600.288L421.896 600.385L421.952 601.316L419.442 601.56C419.036 601.554 418.485 601.711 417.864 601.749C417.217 601.881 416.812 601.874 416.596 601.918C414.923 602.081 413.636 601.94 412.857 601.426C412.078 600.912 411.661 600.189 411.536 599.136C411.454 598.3 411.683 597.444 412.052 596.83C412.42 596.216 413.168 595.703 414.056 595.432C412.909 595.532 411.933 595.372 411.154 594.858C410.375 594.344 409.983 593.526 409.927 592.594C409.853 591.352 410.133 590.306 410.983 589.414C411.833 588.521 413.203 587.972 415.282 587.816C415.713 587.727 416.119 587.734 416.619 587.766C417.551 587.711 418.172 587.673 418.362 587.724L420.872 587.48L420.928 588.412L419.419 588.72L420.394 600.288ZM415.407 588.868C414.165 588.942 413.252 589.309 412.789 589.898C412.23 590.461 412.027 591.221 412.178 592.178C412.234 593.11 412.556 593.808 413.075 594.151C413.595 594.493 414.45 594.723 415.502 594.597C416.744 594.523 417.581 594.441 417.917 594.327L417.461 588.807C417.081 588.705 416.46 588.742 415.407 588.868ZM416.965 595.6L415.913 595.726C415.076 595.807 414.378 596.129 414.036 596.649C413.693 597.168 413.489 597.928 413.57 598.765C413.652 599.602 413.879 600.274 414.398 600.616C414.918 600.959 415.678 601.163 416.73 601.038C417.161 600.949 417.662 600.982 418.118 600.798L418.549 600.71L418.112 595.5C417.801 595.519 417.491 595.537 416.965 595.6Z" fill="#313131"/>
<path d="M391.041 603.016L390.985 602.084L392.589 601.801L392.235 590.196L390.448 590.023L390.392 589.091L395.621 588.965L395.677 589.896L394.099 590.084L394.427 601.784L400.372 601.645L400.044 589.946L398.352 589.798L398.296 588.866L403.524 588.74L403.58 589.671L402.097 589.885L402.451 601.49L404.022 601.707L404.078 602.639L391.041 603.016Z" fill="#313131"/>
<path d="M386.633 589.816C387.482 590.451 388.184 591.25 388.595 592.379C389.031 593.412 389.201 594.68 389.224 596.112C389.153 597.519 388.917 598.78 388.326 599.844C387.736 600.908 387.006 601.731 386.042 602.287C385.078 602.844 383.975 603.16 382.853 603.165C380.92 603.156 379.476 602.463 378.47 601.277C377.489 599.996 377.015 598.341 377.005 596.097C376.982 594.665 377.338 593.335 377.929 592.271C378.52 591.207 379.275 590.289 380.239 589.732C381.203 589.176 382.306 588.86 383.523 588.88C384.74 588.901 385.785 589.181 386.633 589.816ZM385.879 600.614C386.565 599.576 386.972 598.055 387.006 596.027C386.989 594.189 386.681 592.68 386.055 591.596C385.428 590.511 384.459 589.946 383.243 589.926C382.026 589.905 381.062 590.462 380.376 591.5C379.69 592.539 379.258 594.155 379.223 596.183C379.215 598.115 379.454 599.504 380.175 600.614C380.801 601.698 381.77 602.263 382.987 602.284C384.16 602.089 385.098 601.627 385.879 600.614Z" fill="#313131"/>
<path d="M371.127 593.708C371.49 591.971 371.916 590.762 372.551 589.913C372.869 589.489 373.16 589.16 373.522 588.951C373.883 588.742 374.314 588.654 374.72 588.661C375.316 588.719 375.721 588.725 376.007 588.802L376.005 590.329C375.72 590.253 375.219 590.22 374.623 590.163C374.433 590.112 374.218 590.156 373.977 590.295C373.736 590.434 373.59 590.599 373.444 590.763C372.346 592.201 371.746 595.198 371.456 599.703L371.359 601.205L373.5 601.575L373.461 602.482L362.638 601.822L362.677 600.916L364.445 600.779L365.213 589.169L363.357 588.875L363.396 587.969L369.093 588.375L369.054 589.281L367.095 589.368L366.327 600.977L370.142 601.185L370.29 599.493C370.565 597.326 370.789 595.349 371.127 593.708Z" fill="#313131"/>
<path d="M359.249 600.405L360.769 600.812L360.635 601.693L351.13 600.674L351.203 597.74L352.299 597.83L352.627 599.649L357.246 600.276L357.835 595.035L354.762 594.721L354.355 596.242L353.353 596.177L353.783 591.912L354.784 591.977L354.852 593.625L357.9 594.034L358.471 588.483L353.179 588.084L351.973 590.307L350.883 589.811L351.749 586.58L362.04 587.708L361.906 588.589L360.378 588.587L359.249 600.405Z" fill="#313131"/>
<path d="M343.812 598.713L346.981 599.053L348.189 595.303L349.355 595.513L348.342 600.436L336.797 598.667L337.31 593.711L338.475 593.922L338.528 597.908L341.74 598.464L343.44 586.798L340.849 586.206L340.983 585.325L348.029 586.398L347.895 587.279L345.487 587.143L343.812 598.713Z" fill="#313131"/>
<path d="M330.483 589.54L331.363 589.674C331.699 589.56 332.112 589.161 332.455 588.642C332.797 588.123 333.381 587.464 333.896 586.685C334.41 585.906 334.873 585.318 335.191 584.893C335.508 584.469 335.749 584.33 335.939 584.381L338.461 584.853L338.327 585.734L337.585 585.841C337.37 585.885 337.154 585.929 336.862 586.258C336.596 586.492 336.158 586.986 335.694 587.575C335.085 588.328 334.622 588.917 334.209 589.316C333.771 589.81 333.41 590.018 332.953 590.202C333.758 590.621 334.321 591.179 334.644 591.877C334.966 592.574 335.047 593.411 334.888 594.387C334.601 595.838 333.941 596.781 333.028 597.148C332.019 597.489 330.777 597.563 329.136 597.225C328.756 597.124 328.376 597.022 327.806 596.869C327.235 596.716 326.76 596.589 326.475 596.512L323.858 596.015L323.993 595.134L325.589 595.256L327.834 583.839L326.149 583.285L326.283 582.405L331.707 583.45L331.573 584.331L329.786 584.158L328.892 589.012L330.483 589.54ZM327.94 595.988C328.51 596.141 328.985 596.268 329.365 596.37C330.341 596.53 331.057 596.518 331.66 596.17C332.262 595.822 332.631 595.208 332.816 594.137C332.975 593.161 332.894 592.325 332.451 591.697C332.008 591.069 331.394 590.7 330.443 590.446C329.468 590.286 328.802 590.108 328.492 590.127L327.395 595.74L327.94 595.988Z" fill="#313131"/>
<path d="M317.359 593.662L320.546 594.312L322.04 590.638L323.275 590.969L321.786 595.765L310.496 593.045L311.415 588.097L312.555 588.403L312.202 592.382L315.338 593.222L318.013 581.717L315.473 580.934L315.702 580.079L322.691 581.747L322.461 582.603L320.009 582.251L317.359 593.662Z" fill="#313131"/>
<path d="M305.355 578.019C306.153 578.844 306.589 579.878 306.784 581.05C306.979 582.223 306.838 583.509 306.456 584.935C306.1 586.265 305.388 587.399 304.564 588.196C303.713 589.089 302.654 589.62 301.551 589.936C300.353 590.226 299.257 590.136 298.021 589.805C297.071 589.55 296.076 589.08 294.822 588.438L294.278 588.19L295.428 585.036L296.664 585.367L296.433 587.749C296.572 587.99 296.832 588.162 297.186 588.359C297.541 588.556 298.086 588.803 298.656 588.956C299.416 589.16 300.132 589.148 300.9 588.946C301.572 588.719 302.32 588.206 302.834 587.428C303.444 586.674 303.914 585.68 304.219 584.539C304.525 583.399 304.71 582.328 304.68 581.301C304.649 580.275 304.378 579.387 303.96 578.664C303.543 577.941 302.859 577.452 301.909 577.198C301.243 577.019 300.768 576.892 300.363 576.885C299.957 576.878 299.621 576.992 299.38 577.131L298.161 578.638L297.072 578.142L298.235 575.704C298.52 575.78 298.925 575.787 299.426 575.819C299.927 575.852 300.332 575.858 300.738 575.865C301.143 575.872 301.714 576.025 302.284 576.178C303.519 576.509 304.583 577.099 305.355 578.019Z" fill="#313131"/>
<path d="M286.916 586.014L287.24 585.184L289.071 585.573L292.155 576.723L289.98 578.381L282.768 582.866L282.641 583.341L284.18 584.059L283.856 584.889L279.016 583.185L279.34 582.355L280.791 582.642L284.556 571.631L283.112 570.939L283.436 570.109L288.371 571.839L288.047 572.669L286.406 572.331L283.296 581.276L285.352 579.688L292.778 575.159L292.957 574.493L291.322 573.75L291.647 572.92L296.582 574.65L296.257 575.48L294.711 575.167L290.946 586.178L292.295 586.845L291.971 587.675L286.916 586.014Z" fill="#313131"/>
<path d="M267.823 578.963L269.476 574.313L270.686 574.739L269.788 578.471L273.531 580.085L277.892 569.133L274.909 567.722L275.233 566.892L282.062 569.537L281.738 570.367L279.742 569.832L275.527 580.62L277.301 581.604L276.976 582.434L267.823 578.963Z" fill="#313131"/>
<path d="M265.284 576.653L266.487 577.485L266.163 578.315L261.52 576.256L261.844 575.426L263.365 575.833L265.398 571.285L259.381 568.654L257.347 573.202L258.645 574.059L258.321 574.889L253.773 572.856L254.097 572.026L255.523 572.408L260.213 561.747L258.889 560.985L259.213 560.155L263.761 562.189L263.437 563.019L261.942 562.516L259.686 567.514L265.704 570.145L267.96 565.147L266.541 564.36L266.865 563.53L271.603 565.614L271.279 566.444L269.879 565.967L265.284 576.653Z" fill="#313131"/>
<path d="M247.572 569.768L245.774 568.879L247.482 555.28L246.539 554.62L246.958 553.816L251.36 556.014L250.941 556.818L249.445 556.316L248.992 559.148L253.844 561.568L255.836 559.454L254.443 558.572L254.862 557.767L258.815 559.743L258.395 560.547L257.28 560.147L247.572 569.768ZM247.817 566.574L247.479 568.215L248.647 566.899L253.019 562.366L248.807 560.219L247.817 566.574Z" fill="#313131"/>
<path d="M240.263 555.994C241.335 554.652 242.306 553.69 243.175 553.108C243.657 552.83 243.993 552.716 244.424 552.628C244.83 552.635 245.21 552.736 245.659 552.959C246.204 553.207 246.533 553.499 246.793 553.67L246.221 555.045C245.961 554.873 245.607 554.676 244.992 554.308C244.828 554.162 244.638 554.111 244.422 554.155C244.207 554.199 243.991 554.243 243.75 554.382C242.209 555.192 240.33 557.642 238.044 561.613L237.282 562.937L239.074 564.232L238.655 565.036L229.269 559.771L229.688 558.967L231.348 559.615L237.032 549.425L235.474 548.396L235.893 547.592L240.954 550.374L240.534 551.178L238.805 550.409L233.146 560.505L236.433 562.302L237.246 560.788C238.136 558.99 239.19 557.337 240.263 555.994Z" fill="#313131"/>
<path d="M212.214 549.294L212.728 548.515L214.362 549.258L220.566 539.411L219.224 538.338L219.738 537.559L224.342 540.524L223.828 541.303L222.288 540.585L216.085 550.433L217.427 551.505L216.913 552.284L212.214 549.294ZM225.027 550.893C223.728 550.036 222.956 549.116 222.615 548.108C222.274 547.1 222.459 546.029 223.171 544.896C223.907 543.667 224.897 543.016 226.069 542.821C227.242 542.625 228.477 542.957 229.801 543.719C229.966 543.865 230.156 543.915 230.32 544.061C230.485 544.207 230.65 544.353 230.84 544.404C231.429 544.868 231.948 545.211 232.372 545.528L234.544 546.925L234.03 547.704L232.586 547.011L226.382 556.859L227.534 557.88L227.02 558.659L222.486 555.815L223 555.036L224.729 555.805L227.034 552.144L225.027 550.893ZM230.37 545.399C230.205 545.253 229.945 545.081 229.496 544.859C228.622 544.319 227.766 544.09 226.999 544.292C226.232 544.494 225.579 545.032 224.918 545.975C224.379 546.849 224.175 547.61 224.377 548.377C224.579 549.144 225.117 549.797 225.991 550.337L227.644 551.391L231.002 546.078C230.794 545.716 230.629 545.57 230.37 545.399Z" fill="#313131"/>
<path d="M205.776 543.29L206.808 544.382L206.293 545.161L202.215 542.133L202.73 541.354L204.148 542.141L207.176 538.064L201.895 534.204L198.867 538.282L199.899 539.373L199.385 540.152L195.402 537.15L195.916 536.371L197.266 537.038L204.153 527.679L203.096 526.683L203.61 525.904L207.688 528.932L207.174 529.711L205.85 528.949L202.651 533.286L207.932 537.146L211.131 532.808L209.909 531.666L210.423 530.887L214.596 533.94L214.082 534.719L212.758 533.957L205.776 543.29Z" fill="#313131"/>
<path d="M189.938 532.833L188.362 531.494L192.946 518.565L192.174 517.645L192.758 516.986L196.621 520.058L196.011 520.812L194.713 519.955L193.689 522.634L197.951 526.119L200.411 524.537L199.285 523.42L199.868 522.762L203.307 525.517L202.723 526.175L201.659 525.584L189.938 532.833ZM190.943 529.843L190.32 531.408L191.722 530.357L196.936 526.865L193.263 523.844L190.943 529.843Z" fill="#313131"/>
<path d="M178.835 521.812L180.145 523.385L179.561 524.043L175.896 520.617L179.657 512.661L180.839 510.533L178.834 511.931L171.243 516.314L167.647 513.008L168.231 512.35L169.928 513.619L176.746 504.14L175.67 502.833L176.254 502.175L180.153 505.868L179.569 506.526L178.202 505.549L173.149 512.241L170.953 515.116L173.363 513.725L182.349 508.697L183.242 509.547L179.397 518.193L177.79 521.531L180.48 519.095L186.78 513.449L185.514 512.091L186.098 511.433L189.693 514.739L189.11 515.398L187.837 514.445L178.835 521.812Z" fill="#313131"/>
<path d="M162.507 507.862L161.076 506.358L167.201 494.147L166.549 493.157L167.228 492.524L170.652 496.09L169.973 496.723L168.701 495.771L167.297 498.349L171.146 502.232L173.746 500.892L172.765 499.61L173.444 498.977L176.564 502.156L175.885 502.789L174.942 502.129L162.507 507.862ZM163.892 504.974L163.079 506.488L164.62 505.678L170.277 502.814L166.922 499.369L163.892 504.974Z" fill="#313131"/>
<path d="M156.3 499.476L157.091 500.707L156.412 501.34L154.772 499.474C154.443 499.182 154.139 498.796 153.81 498.504C153.316 498.066 152.848 497.533 152.449 497.12C151.278 495.788 150.678 494.609 150.647 493.582C150.617 492.555 151.157 491.681 152.127 490.719C152.901 490.111 153.65 489.599 154.486 489.518C155.349 489.341 156.229 489.475 157.059 489.8C157.889 490.124 158.643 490.733 159.345 491.533C159.579 491.799 159.813 492.065 160.048 492.332C160.282 492.598 160.421 492.839 160.516 492.865L163.593 490.124L162.005 488.069L162.684 487.436L166.759 491.991L166.081 492.624L164.928 491.603L156.3 499.476ZM158.641 492.26C158.008 491.582 157.203 491.162 156.418 491.054C155.632 490.945 154.598 491.381 153.628 492.343C152.828 493.046 152.434 493.755 152.446 494.471C152.458 495.187 152.85 496.005 153.552 496.805C153.787 497.071 154.116 497.363 154.445 497.655C154.61 497.801 154.774 497.947 154.844 498.068L159.786 493.688C159.552 493.421 159.179 492.914 158.641 492.26Z" fill="#313131"/>
<path d="M156.6 481.63C156.795 482.803 156.61 483.874 156.019 484.938C155.524 486.027 154.648 487.015 153.582 487.951C152.516 488.888 151.362 489.394 150.19 489.589C149.017 489.784 147.8 489.763 146.711 489.268C145.596 488.867 144.652 488.207 143.81 487.166C143.203 486.393 142.551 485.403 141.951 484.224L141.698 483.647L144.381 481.615L145.153 482.535L143.643 484.371C143.687 484.587 143.705 484.897 143.889 485.354C144.097 485.715 144.376 486.197 144.749 486.705C145.287 487.358 145.901 487.727 146.661 487.93C147.422 488.134 148.258 488.053 149.146 487.781C150.034 487.51 150.998 486.953 151.917 486.181C152.837 485.409 153.542 484.681 154.081 483.807C154.621 482.933 154.945 482.103 154.959 481.292C154.973 480.481 154.676 479.688 154.163 478.94C153.79 478.433 153.366 478.115 153.037 477.823C152.707 477.531 152.422 477.455 152.112 477.473L150.216 478.086L149.564 477.097L151.854 475.775C152.018 475.921 152.348 476.213 152.772 476.53C153.196 476.847 153.551 477.044 153.88 477.336C154.209 477.628 154.513 478.015 155.007 478.453C155.969 479.424 156.5 480.483 156.6 481.63Z" fill="#313131"/>
<path d="M126.126 463.075L126.874 462.562L128.02 463.99L135.84 458.752L133.096 458.729L124.662 457.895L124.275 458.199L124.989 459.715L124.241 460.227L121.425 455.908L122.174 455.395L123.206 456.487L132.885 450.015L132.145 448.594L132.893 448.082L135.803 452.427L135.055 452.939L133.979 451.632L126.038 456.94L128.592 456.911L137.217 457.796L137.819 457.448L137.01 455.907L137.758 455.395L140.668 459.74L139.92 460.252L138.913 459.066L129.235 465.538L129.879 466.933L129.131 467.445L126.126 463.075Z" fill="#313131"/>
<path d="M119.503 452.439C119.104 452.027 118.8 451.64 118.471 451.348C118.142 451.056 118.028 450.72 117.794 450.453C117.029 449.128 116.618 447.999 116.588 446.972C116.557 445.946 117.046 445.262 118.01 444.705C118.854 444.218 119.716 444.042 120.571 444.271C121.426 444.5 122.11 444.989 122.743 445.668C122.187 444.704 121.941 443.721 122.17 442.866C122.399 442.011 122.888 441.327 123.636 440.814C124.746 440.093 125.919 439.898 126.939 440.273C127.959 440.648 128.946 441.524 129.946 443.116C130.294 443.719 130.641 444.321 130.799 444.873C130.957 445.424 131.14 445.881 131.254 446.217C131.368 446.553 131.412 446.768 131.386 446.863L128.476 448.222L127.989 447.379L129.759 445.714C129.747 444.998 129.45 444.206 128.868 443.337C128.451 442.614 127.862 442.15 127.266 442.093C126.671 442.035 125.808 442.211 124.965 442.698C124.337 443.141 123.899 443.635 123.626 444.275C123.448 444.94 123.624 445.802 124.206 446.671L124.927 447.781L124.058 448.363L123.502 447.399C123.223 446.917 122.894 446.625 122.47 446.308C122.046 445.99 121.57 445.863 121.07 445.831C120.569 445.798 120.018 445.956 119.415 446.304C118.692 446.721 118.349 447.241 118.197 447.811C118.139 448.407 118.271 449.053 118.689 449.776C118.967 450.258 119.271 450.645 119.625 450.842C119.954 451.134 120.24 451.21 120.455 451.166L122.135 450.598L122.787 451.587L120.421 453.194C120.231 453.143 119.997 452.877 119.503 452.439Z" fill="#313131"/>
<path d="M112.156 438.044L112.68 439.508L111.862 439.9L110.635 437.636C110.427 437.275 110.148 436.793 109.775 436.285C109.402 435.778 109.193 435.416 109.054 435.175C108.245 433.634 107.954 432.436 107.994 431.53C108.128 430.649 108.616 429.965 109.58 429.409C110.398 429.017 111.166 428.815 111.926 429.019C112.712 429.127 113.395 429.616 113.933 430.27C113.402 429.21 113.156 428.228 113.385 427.373C113.615 426.517 114.103 425.833 115.042 425.372C116.126 424.746 117.274 424.646 118.363 425.141C119.478 425.542 120.51 426.633 121.528 428.536C121.737 428.897 121.92 429.354 122.129 429.715C122.521 430.533 122.773 431.11 122.938 431.256L124.095 433.4L123.277 433.792L122.391 432.536L112.156 438.044ZM115.153 432.939L114.692 432.001C114.274 431.278 113.806 430.745 113.141 430.566C112.476 430.388 111.829 430.521 111.011 430.912C110.288 431.33 109.755 431.798 109.602 432.368C109.45 432.939 109.651 433.706 110.113 434.644C110.322 435.006 110.6 435.488 110.809 435.849L111.017 436.211L115.64 433.783C115.64 433.783 115.432 433.421 115.153 432.939ZM120.805 428.953C120.179 427.869 119.546 427.19 118.811 426.891C118.076 426.592 117.335 426.699 116.491 427.186C115.648 427.673 115.115 428.141 115.032 428.832C114.948 429.523 115.055 430.265 115.612 431.228C116.238 432.313 116.56 433.01 116.769 433.372L121.658 430.71C121.519 430.469 121.266 429.892 120.805 428.953Z" fill="#313131"/>
<path d="M103.655 424.154L102.732 422.277L112.345 412.63L112.029 411.527L112.847 411.135L115.016 415.587L114.198 415.979L113.337 414.628L111.18 416.596L113.532 421.504L116.403 421.051L115.905 419.492L116.723 419.1L118.613 423.069L117.795 423.461L117.143 422.472L103.655 424.154ZM105.819 421.78L104.486 422.951L106.211 422.598L112.454 421.725L110.355 417.394L105.819 421.78Z" fill="#313131"/>
<path d="M111.032 408.408C110.846 409.479 110.351 410.568 109.621 411.391C108.891 412.214 107.756 413.03 106.481 413.606C105.207 414.181 103.939 414.35 102.748 414.235C101.556 414.119 100.441 413.719 99.4979 413.059C98.5544 412.398 97.8077 411.383 97.3021 410.229C96.9356 409.316 96.6201 408.213 96.3554 406.92L96.2231 406.273L99.3934 405.086L99.899 406.24L97.8946 407.638C97.8437 407.828 97.8369 408.234 97.9251 408.665C98.0133 409.096 98.1711 409.647 98.4239 410.224C98.7463 410.922 99.1891 411.55 99.8985 411.944C100.608 412.337 101.368 412.541 102.3 412.485C103.231 412.429 104.309 412.209 105.463 411.703C106.497 411.267 107.461 410.71 108.26 410.008C109.06 409.305 109.548 408.622 109.777 407.766C110.102 406.936 110.02 406.1 109.628 405.282C109.376 404.705 109.097 404.223 108.863 403.956C108.629 403.69 108.395 403.423 108.015 403.321L105.987 403.287L105.671 402.184L108.283 401.56C108.422 401.801 108.631 402.162 108.935 402.549C109.238 402.936 109.567 403.228 109.776 403.59C109.985 403.951 110.263 404.433 110.516 405.01C111.022 406.164 111.217 407.337 111.032 408.408Z" fill="#313131"/>
<path d="M94.841 396.226C93.7701 396.041 92.7757 395.571 92.0222 394.962C91.2688 394.352 90.6868 393.483 90.3457 392.475C89.9351 391.347 89.8097 390.295 90.0898 389.249C90.3699 388.204 90.8146 387.304 91.614 386.602C92.4388 385.804 93.4028 385.248 94.6519 384.768C96.1165 384.243 97.3842 384.074 98.601 384.094C99.7923 384.21 100.907 384.61 101.756 385.245C102.604 385.88 103.281 386.774 103.717 387.808C104.128 388.937 104.228 390.084 104.043 391.155C103.858 392.225 103.318 393.099 102.493 393.897C101.668 394.694 100.679 395.346 99.4299 395.826L100.504 398.66L105.595 396.765L105.217 395.136L106.105 394.865L107.861 399.715L106.973 399.986L106.233 398.566L95.3784 402.584L95.6871 404.092L94.7995 404.364L93.018 399.608L93.9056 399.337L94.6454 400.757L99.4007 398.976L98.3268 396.142C97.1286 396.432 95.8863 396.506 94.841 396.226ZM93.7024 394.393C94.9378 394.724 96.5161 394.536 98.4627 393.734C100.168 393.07 101.399 392.28 102.18 391.266C102.96 390.253 103.145 389.183 102.735 388.054C102.324 386.925 101.476 386.291 100.335 385.985C99.1948 385.679 97.5911 385.963 95.6699 386.67C93.9643 387.334 92.7339 388.124 91.9786 389.042C91.1979 390.055 91.0383 391.031 91.4489 392.16C91.7389 393.358 92.562 394.088 93.7024 394.393Z" fill="#313131"/>
<path d="M93.0471 375.171C93.5359 374.487 94.1707 373.639 95.0465 372.651C95.6303 371.993 96.0682 371.499 96.3856 371.075C96.6775 370.745 96.7539 370.46 96.8048 370.27L96.793 369.554L97.6806 369.283L98.4068 371.514C98.5459 371.755 98.3235 372.205 98.0062 372.629C97.6633 373.148 97.0794 373.807 96.2546 374.604C95.3788 375.592 94.6745 376.32 94.2111 376.909C93.7478 377.498 93.6205 377.973 93.7341 378.309L94.0497 379.412L99.1597 377.827L98.9019 376.129L99.7895 375.857L101.33 380.752L100.442 381.023L99.7977 379.628L88.6901 383.069L88.9037 384.552L88.0161 384.823L86.5452 380.05L87.4328 379.778L88.0776 381.173L93.1876 379.588L92.6888 378.029L86.3979 376.038L86.6812 377.641L85.7936 377.913L84.4363 373.475L85.3239 373.203L85.9941 374.503L92.4241 376.736C92.3105 376.4 92.5837 375.76 93.0471 375.171Z" fill="#313131"/>
<path d="M96.0366 366.295C95.6614 367.315 95.0267 368.164 94.1322 368.841C93.2378 369.518 92.0583 370.118 90.7397 370.478C89.326 370.812 88.0837 370.887 86.9179 370.676C85.752 370.466 84.783 369.901 83.96 369.171C83.137 368.441 82.5804 367.477 82.2903 366.279C81.7729 364.409 81.9902 362.837 82.9679 361.469C83.92 360.197 85.3915 359.267 87.4772 358.705C88.8909 358.371 90.2282 358.322 91.3941 358.533C92.5599 358.743 93.6239 359.334 94.447 360.064C95.27 360.793 95.8266 361.757 96.1167 362.955C96.4067 364.154 96.4117 365.275 96.0366 366.295ZM85.3805 368.431C86.5905 368.857 88.1433 368.764 90.1086 368.272C91.9533 367.85 93.2788 367.084 94.1291 366.192C94.9794 365.299 95.285 364.159 94.9694 363.056C94.6793 361.857 93.8563 361.128 92.6463 360.701C91.4364 360.275 89.7885 360.343 87.8232 360.835C85.9785 361.258 84.653 362.023 83.8027 362.915C82.9524 363.808 82.6723 364.853 82.9624 366.051C83.468 367.206 84.2656 368.03 85.3805 368.431Z" fill="#313131"/>
<path d="M81.1863 356.714L81.2795 358.267L80.4174 358.443L79.8626 355.952C79.7744 355.521 79.6167 354.969 79.4589 354.418C79.3011 353.866 79.1178 353.41 79.0992 353.099C78.7463 351.375 78.7668 350.158 79.091 349.328C79.4152 348.498 80.1637 347.986 81.1463 347.74C82.0085 347.564 82.7942 347.672 83.529 347.971C84.2383 348.365 84.8017 348.923 85.1937 349.741C84.9036 348.543 84.9427 347.637 85.3619 346.832C85.7812 346.028 86.5296 345.516 87.4868 345.365C88.6849 345.075 89.8508 345.285 90.7688 346.04C91.7124 346.701 92.4522 348.121 92.8491 350.061C92.9373 350.492 93.0255 350.923 93.0187 351.329C93.1697 352.286 93.3274 352.837 93.3715 353.053L93.9517 355.449L93.0896 355.626L92.5653 354.161L81.1863 356.714ZM85.431 352.657L85.185 351.674C85.0086 350.812 84.6607 350.21 84.0464 349.841C83.5271 349.498 82.7414 349.39 81.8538 349.661C80.9917 349.838 80.3892 350.185 80.1414 350.73C79.8936 351.275 79.7849 352.061 80.0054 353.138C80.0936 353.569 80.1818 354 80.3651 354.457L80.4788 354.793L85.5565 353.709C85.6074 353.519 85.4937 353.183 85.431 352.657ZM91.8665 350.307C91.5764 349.109 91.1844 348.291 90.5006 347.802C89.9117 347.339 89.126 347.23 88.1433 347.476C87.1862 347.627 86.5582 348.07 86.3104 348.614C85.9676 349.134 85.9285 350.04 86.149 351.118C86.4391 352.316 86.6155 353.178 86.7292 353.514L92.1429 352.316C92.2193 352.031 92.087 351.385 91.8665 350.307Z" fill="#313131"/>
<path d="M74.7245 327.991L75.6817 327.84L76.1805 329.399L87.6664 327.588L87.6242 325.845L88.5813 325.694L89.4243 330.911L88.4671 331.062L88.0634 329.528L76.5775 331.339L77.5273 337.297L89.1083 335.511L89.066 333.769L90.0231 333.618L90.7711 338.809L89.8139 338.96L89.3847 337.521L77.8988 339.332L77.8715 340.955L76.9143 341.106L74.7245 327.991Z" fill="#313131"/>
<path d="M87.3564 321.903C86.9117 322.802 86.0869 323.6 85.1229 324.156C84.1589 324.713 82.9353 325.098 81.4775 325.216C80.0197 325.335 78.7333 325.194 77.6184 324.794C76.5035 324.393 75.5599 323.733 74.8829 322.838C74.2058 321.944 73.7698 320.91 73.6697 319.763C73.4629 317.874 73.8958 316.259 75.0125 315.132C76.1293 314.005 77.7399 313.316 79.9393 313.091C81.3971 312.972 82.6835 313.113 83.7984 313.514C84.9133 313.914 85.8568 314.575 86.6289 315.494C87.306 316.389 87.742 317.422 87.8421 318.57C87.9862 319.932 87.8011 321.003 87.3564 321.903ZM76.5121 322.46C77.6711 323.076 79.1731 323.173 81.252 323.017C83.1408 322.81 84.4849 322.355 85.5253 321.514C86.5402 320.767 87.0104 319.773 86.8408 318.505C86.7408 317.358 86.0637 316.463 84.9047 315.847C83.7456 315.231 82.1487 315.109 80.1648 315.29C78.276 315.497 76.8368 315.926 75.8915 316.793C74.8766 317.54 74.5014 318.56 74.671 319.828C74.7456 321.07 75.4226 321.964 76.5121 322.46Z" fill="#313131"/>
<path d="M81.4485 307.078C83.1405 307.226 84.4964 307.488 85.3958 307.932C85.8455 308.155 86.1747 308.447 86.4089 308.713C86.6176 309.075 86.7313 309.411 86.8195 309.842C86.8568 310.463 86.8499 310.868 86.7735 311.153L85.2903 311.367C85.2716 311.057 85.2785 310.651 85.2667 309.935C85.2225 309.719 85.1784 309.504 85.0138 309.358C84.8492 309.212 84.6846 309.066 84.425 308.894C82.9113 308.081 79.8379 307.767 75.2745 308.072L73.8167 308.191L73.7571 310.314L72.8254 310.37L72.1475 299.595L73.0792 299.539L73.432 301.264L85.0434 300.504L85.1217 298.692L86.0534 298.636L86.4585 304.347L85.5268 304.402L85.2249 302.488L73.6389 303.152L73.8371 306.974L75.485 306.906C77.8236 306.922 79.7565 306.931 81.4485 307.078Z" fill="#313131"/>
<path d="M73.2798 296.13L73.0624 297.701L72.1307 297.757L71.933 288.231L74.8741 287.899L74.9045 288.926L73.1293 289.469L73.0984 294.146L78.3271 294.019L78.2357 290.939L76.6642 290.721L76.6337 289.695L80.9307 289.624L80.9612 290.651L79.3574 290.934L79.3283 294.084L84.8676 293.938L84.5507 288.658L82.1562 287.711L82.4618 286.571L85.6997 287.031L85.8838 297.368L84.9521 297.424L84.7639 295.846L73.2798 296.13Z" fill="#313131"/>
<path d="M73.0638 280.59L73.1297 283.765L77.0074 284.498L76.9869 285.715L72.0061 285.297L72.2735 273.655L77.2867 273.573L77.2662 274.79L73.3425 275.368L73.1929 278.587L84.9553 278.785L85.1676 276.092L86.0739 276.131L85.907 283.216L85.0007 283.177L84.8516 280.693L73.0638 280.59Z" fill="#313131"/>
<path d="M80.4898 266.18L80.4507 267.087C80.6594 267.448 80.9886 267.74 81.6029 268.108C82.1222 268.451 82.8315 268.845 83.7309 269.29C84.6303 269.734 85.2447 270.103 85.6944 270.325C86.1441 270.547 86.3782 270.814 86.3273 271.004L86.1659 273.507L85.2596 273.468L85.1528 272.726C85.1087 272.511 84.9441 272.365 84.7099 272.098C84.3552 271.902 83.931 271.584 83.2471 271.095C82.4427 270.676 81.8539 270.213 81.3346 269.87C80.8154 269.527 80.5116 269.14 80.3029 268.779C79.9787 269.608 79.5153 270.197 78.7669 270.71C78.0439 271.127 77.2768 271.329 76.2755 271.264C74.7736 271.168 73.7792 270.697 73.2227 269.733C72.6661 268.769 72.4965 267.502 72.6188 265.905C72.6256 265.499 72.7275 265.119 72.7852 264.523C72.843 263.928 72.9703 263.453 72.9517 263.142L73.1641 260.449L74.0703 260.488L74.1635 262.041L85.7731 262.809L86.0413 261.047L86.9476 261.086L86.5924 266.593L85.6862 266.554L85.6694 264.716L80.6631 264.393L80.4898 266.18ZM73.7169 264.467C73.5641 265.038 73.5319 265.538 73.525 265.944C73.4605 266.945 73.5673 267.687 74.0357 268.22C74.504 268.753 75.1438 269.026 76.2401 269.116C77.2413 269.181 78.0085 268.979 78.6364 268.536C79.2644 268.093 79.4681 267.333 79.6277 266.357C79.6922 265.356 79.75 264.76 79.6618 264.329L73.9648 263.923L73.7169 264.467Z" fill="#313131"/>
<path d="M74.6614 253.72L74.4167 256.914L78.2181 257.933L78.1026 259.124L73.1285 258.3L74.3972 246.723L79.4035 247.046L79.2881 248.237L75.3712 248.41L74.911 251.648L86.5833 252.942L87.0808 250.325L87.9616 250.46L87.1735 257.582L86.2927 257.448L86.3337 255.014L74.6614 253.72Z" fill="#313131"/>
<path d="M88.7857 239.782C88.0559 240.605 87.0664 241.256 85.9633 241.572C84.8602 241.887 83.5229 241.936 82.167 241.675C80.8111 241.413 79.6011 240.987 78.683 240.232C77.765 239.477 76.9929 238.557 76.5823 237.428C76.1717 236.3 76.0717 235.153 76.3077 233.892C76.4673 232.916 76.7728 231.775 77.2939 230.591L77.5418 230.046L80.8238 230.722L80.5878 231.983L78.1288 232.037C77.9828 232.202 77.8114 232.461 77.589 232.911C77.3921 233.266 77.2394 233.836 77.1816 234.431C77.0729 235.217 77.1798 235.959 77.5022 236.656C77.8246 237.354 78.3879 237.912 79.2619 238.452C80.0408 238.966 81.0862 239.246 82.3471 239.482C83.5129 239.693 84.5397 239.662 85.5918 239.537C86.549 239.386 87.4621 239.019 88.1155 238.482C88.7689 237.944 89.1627 237.234 89.3223 236.258C89.4055 235.568 89.4378 235.067 89.4191 234.757C89.4005 234.446 89.2868 234.11 89.0781 233.749L87.4253 232.694L87.7308 231.554L90.2458 232.432C90.1694 232.717 90.2831 233.053 90.3459 233.579C90.4341 234.01 90.4018 234.511 90.49 234.942C90.5782 235.373 90.4509 235.848 90.3677 236.539C90.0366 237.774 89.541 238.864 88.7857 239.782Z" fill="#313131"/>
<path d="M78.5522 222.474L79.4329 222.608L79.2597 224.395L88.4152 226.339L86.4909 224.397L81.1372 217.768L80.662 217.641L80.1341 219.231L79.2533 219.097L80.2924 214.079L81.1731 214.213L81.0763 215.715L92.443 218.149L92.9455 216.654L93.8008 216.883L92.7363 221.997L91.881 221.767L92.0288 220.076L82.6832 218.081L84.538 219.902L89.9612 226.651L90.6264 226.83L91.1798 225.145L92.0606 225.279L90.9961 230.392L90.1153 230.258L90.2377 228.661L78.8709 226.226L78.3939 227.626L77.5131 227.492L78.5522 222.474Z" fill="#313131"/>
<path d="M83.1325 202.719L87.9352 203.802L87.6041 205.037L83.8401 204.64L82.6755 208.606L94.1305 211.471L95.1609 208.386L96.0162 208.615L94.2269 215.673L93.3716 215.444L93.7163 213.398L82.4514 210.583L81.752 212.433L80.8967 212.203L83.1325 202.719Z" fill="#313131"/>
<path d="M85.1132 199.888L84.4462 201.237L83.5908 201.008L85.1051 196.117L85.9604 196.347L85.743 197.918L90.5388 199.407L92.435 193.09L87.6392 191.602L86.9721 192.951L86.1168 192.722L87.6055 187.926L88.4609 188.155L88.269 189.632L99.3811 193.016L99.9531 191.642L100.808 191.871L99.3197 196.667L98.4644 196.438L98.7768 194.892L93.6008 193.301L91.7047 199.617L96.8806 201.208L97.4781 199.738L98.3334 199.968L96.8192 204.858L95.9639 204.629L96.2508 203.178L85.1132 199.888Z" fill="#313131"/>
<path d="M89.6476 181.445L90.3724 179.5L104.024 179.491L104.614 178.427L105.444 178.751L103.791 183.401L102.961 183.077L103.273 181.531L100.339 181.458L98.5585 186.583L100.844 188.316L101.537 186.872L102.367 187.196L100.936 191.396L100.106 191.072L100.316 189.906L89.6476 181.445ZM92.9179 181.405L91.2259 181.257L92.6887 182.26L97.6846 186.043L99.287 181.583L92.9179 181.405Z" fill="#313131"/>
<path d="M102.543 172.474C104.031 173.382 105.139 174.188 105.747 174.962C106.05 175.349 106.234 175.805 106.347 176.141C106.436 176.572 106.334 176.953 106.232 177.333C105.984 177.877 105.787 178.232 105.616 178.492L104.216 178.015C104.387 177.755 104.514 177.28 104.762 176.735C104.813 176.545 104.89 176.26 104.82 176.139C104.776 175.924 104.637 175.683 104.498 175.442C103.447 174.04 100.825 172.421 96.5812 170.774L95.2066 170.202L94.1967 172.071L93.3669 171.746L97.3779 161.719L98.2077 162.043L97.7494 163.754L108.512 168.063L109.35 166.455L110.18 166.779L108.038 172.113L107.208 171.788L107.717 169.888L96.955 165.578L95.5122 169.062L97.0768 169.685C99.2303 170.771 101.055 171.566 102.543 172.474Z" fill="#313131"/>
<path d="M105.553 156.677C106.22 155.328 106.975 154.41 108.009 153.974C109.042 153.538 110.044 153.603 111.228 154.124C112.482 154.765 113.375 155.616 113.665 156.814C113.981 157.917 113.84 159.203 113.172 160.553C113.122 160.743 112.976 160.907 112.925 161.097C112.779 161.262 112.728 161.452 112.556 161.712C112.188 162.326 111.94 162.871 111.692 163.415L110.676 165.689L109.871 165.27L110.374 163.775L99.7895 158.8L98.9324 160.098L98.128 159.679L100.333 154.871L101.137 155.291L100.558 157.071L104.441 158.926L105.553 156.677ZM105.556 143.742L106.36 144.162L105.807 145.847L116.296 150.796L117.204 149.308L118.008 149.727L115.657 154.7L114.853 154.28L115.406 152.595L104.917 147.646L104.009 149.134L103.205 148.715L105.556 143.742ZM111.726 161.387C111.872 161.223 111.974 160.843 112.171 160.488C112.616 159.589 112.655 158.682 112.358 157.89C112.061 157.097 111.403 156.513 110.408 156.043C109.509 155.598 108.603 155.559 107.931 155.787C107.233 156.109 106.675 156.672 106.23 157.572L105.461 159.301L111.168 161.951C111.409 161.812 111.581 161.552 111.726 161.387Z" fill="#313131"/>
<path d="M110.615 136.644L109.689 137.822L108.884 137.402L111.393 132.982L112.197 133.401L111.6 134.871L116.046 137.284L119.222 131.515L114.776 129.101L113.849 130.279L113.044 129.859L115.433 125.508L116.237 125.928L115.76 127.328L125.95 133.012L126.877 131.834L127.681 132.253L125.268 136.7L124.463 136.28L125.061 134.811L120.26 132.2L117.085 137.97L121.885 140.581L122.863 139.213L123.667 139.632L121.133 144.148L120.329 143.728L120.901 142.354L110.615 136.644Z" fill="#313131"/>
<path d="M119.039 119.65L120.119 117.902L133.481 120.872L134.237 119.954L135.016 120.468L132.368 124.648L131.589 124.133L132.281 122.689L129.43 121.925L126.56 126.555L128.408 128.781L129.455 127.534L130.234 128.048L127.904 131.804L127.125 131.289L127.621 130.2L119.039 119.65ZM122.131 120.275L120.516 119.842L121.712 121.079L125.832 125.85L128.334 121.835L122.131 120.275Z" fill="#313131"/>
<path d="M128.605 107.139L127.266 108.715L126.487 108.201L129.395 104.193L137.725 106.934L140.025 107.856L138.385 105.991L133.039 98.9557L135.946 94.9475L136.725 95.4618L135.741 97.2351L146.077 102.755L147.219 101.533L147.998 102.047L144.773 106.48L143.994 105.966L144.807 104.452L137.48 100.248L134.288 98.4756L136.041 100.677L142.178 108.942L141.492 109.981L132.446 107.251L128.885 106.093L131.614 108.454L137.989 113.931L139.183 112.519L139.961 113.034L137.175 116.972L136.396 116.458L137.183 115.039L128.605 107.139Z" fill="#313131"/>
<path d="M140.313 89.2934L141.557 87.6915L154.512 92.1814L155.337 91.3838L156.09 91.9931L153.018 95.8554L152.265 95.2461L153.122 93.9479L150.443 92.9243L147.053 97.2108L148.66 99.5767L149.777 98.4499L150.53 99.0593L147.776 102.497L147.022 101.888L147.613 100.824L140.313 89.2934ZM143.329 90.2033L141.764 89.5804L142.814 90.9822L146.306 96.1959L149.233 92.4983L143.329 90.2033Z" fill="#313131"/>
<path d="M147.857 82.046L146.696 82.9572L145.943 82.3479L147.574 80.4422C147.866 80.113 148.158 79.7838 148.355 79.4291C148.793 78.9353 149.135 78.416 149.573 77.9222C150.741 76.6054 151.876 75.7892 152.834 75.6383C153.791 75.4873 154.811 75.8624 155.798 76.7382C156.552 77.3475 157.064 78.096 157.336 78.9836C157.607 79.8712 157.593 80.6823 157.364 81.5376C157.135 82.393 156.69 83.2924 155.986 84.0204C155.72 84.2545 155.523 84.6092 155.256 84.8434C154.99 85.0775 154.844 85.2421 154.818 85.3372L157.971 88.0154L159.767 86.2557L160.425 86.8396L156.433 91.4739L155.775 90.8901L156.632 89.5919L147.857 82.046ZM155.328 83.4365C155.937 82.6831 156.261 81.8532 156.18 81.0166C156.098 80.1799 155.611 79.3364 154.554 78.3401C153.731 77.6103 152.996 77.3116 152.255 77.4184C151.513 77.5253 150.885 77.9682 150.035 78.8607C149.743 79.19 149.546 79.5446 149.254 79.8738C149.083 80.1335 148.962 80.203 148.937 80.2981L153.995 84.6074C154.331 84.4937 154.744 84.0949 155.328 83.4365Z" fill="#313131"/>
<path d="M165.694 80.1025C164.59 80.418 163.494 80.328 162.354 80.0224C161.239 79.6218 160.175 79.0311 159.118 78.0349C158.155 77.0641 157.409 76.0492 157.024 74.8255C156.613 73.6969 156.634 72.4802 156.844 71.3143C157.15 70.1739 157.645 69.0844 158.591 68.2173C159.295 67.4893 160.094 66.7868 161.325 65.9961L161.832 65.6227L164.13 68.0718L163.28 68.9644L161.177 67.688C160.961 67.7321 160.625 67.8458 160.264 68.0545C159.902 68.2632 159.49 68.662 159.078 69.0608C158.519 69.6242 158.22 70.3589 158.137 71.0496C158.029 71.8354 158.23 72.6025 158.597 73.5155C158.989 74.3336 159.666 75.228 160.559 76.0783C161.356 76.9031 162.325 77.4683 163.224 77.913C164.124 78.3578 165.005 78.4919 165.841 78.4105C166.678 78.3291 167.401 77.9117 168.08 77.2787C168.518 76.7849 168.835 76.3607 169.007 76.1011C169.178 75.8414 169.28 75.4613 169.261 75.1507L168.433 73.2992L169.353 72.5271L171.011 74.7028C170.865 74.8674 170.668 75.2221 170.42 75.7669C170.198 76.2166 170.001 76.5712 169.804 76.9259C169.607 77.2806 169.29 77.7048 168.852 78.1986C167.786 79.1353 166.702 79.7614 165.694 80.1025Z" fill="#313131"/>
<path d="M176.763 50.5762L177.396 51.255L176.202 52.6669L182.481 59.6458L182.098 56.8948L181.715 48.44L181.411 48.053L180.035 49.0084L179.402 48.3295L183.278 44.8865L183.911 45.5653L182.984 46.743L190.738 55.4412L191.994 54.5554L192.626 55.2343L188.75 58.6773L188.117 57.9984L189.259 56.7766L182.911 49.6772L183.345 52.2382L183.677 60.8831L184.146 61.416L185.548 60.3656L186.181 61.0445L182.279 64.5825L181.646 63.9037L182.667 62.7515L174.914 54.0533L173.684 54.844L173.051 54.1651L176.763 50.5762Z" fill="#313131"/>
<path d="M186.443 42.5771C186.761 42.1529 187.078 41.7286 187.37 41.3994C187.662 41.0702 187.929 40.836 188.195 40.6019C189.381 39.5956 190.535 39.09 191.493 38.939C192.45 38.7881 193.254 39.2073 193.957 40.0067C194.564 40.7806 194.861 41.5732 194.727 42.4539C194.593 43.3347 194.294 44.0695 193.685 44.823C194.579 44.1459 195.492 43.7794 196.373 43.9136C197.279 43.9527 197.988 44.3465 198.596 45.1204C199.438 46.1607 199.753 47.2639 199.568 48.3347C199.383 49.4055 198.577 50.5136 197.15 51.659C196.617 52.1274 196.014 52.4752 195.532 52.7535C195.05 53.0318 194.594 53.215 194.258 53.3287C193.922 53.4424 193.706 53.4865 193.681 53.5815L191.865 50.8542L192.639 50.2467L194.57 51.7827C195.217 51.6504 196.035 51.2584 196.834 50.5559C197.487 50.018 197.856 49.4037 197.818 48.7826C197.807 48.0664 197.579 47.3943 196.877 46.595C196.434 45.967 195.82 45.5987 195.129 45.5155C194.438 45.4323 193.646 45.7292 192.751 46.4062L191.711 47.2479L191.008 46.4485L191.808 45.746C192.195 45.4423 192.512 45.018 192.734 44.5683C192.957 44.1186 193.084 43.6434 193.021 43.1173C192.959 42.5913 192.68 42.1093 192.307 41.6018C191.769 40.9484 191.25 40.6055 190.629 40.6428C190.008 40.6801 189.43 40.9329 188.803 41.3758C188.39 41.7746 188.098 42.1038 187.806 42.433C187.514 42.7622 187.533 43.0727 187.577 43.2883L188.386 44.8293L187.467 45.6014L185.498 43.4442C185.739 43.3051 186.031 42.9759 186.443 42.5771Z" fill="#313131"/>
<path d="M199.63 33.2766L198.21 34.0164L197.697 33.2679L199.727 31.7747C200.089 31.566 200.501 31.1672 201.009 30.7939C201.421 30.3951 201.808 30.0914 202.049 29.9522C203.451 28.9019 204.605 28.3962 205.511 28.4354C206.417 28.4745 207.222 28.8937 207.829 29.6676C208.342 30.4161 208.544 31.1832 208.53 31.9944C208.516 32.8056 208.123 33.5149 207.539 34.1733C208.459 33.4012 209.441 33.1553 210.347 33.1944C211.254 33.2335 212.033 33.7477 212.545 34.4962C213.292 35.5111 213.512 36.5888 213.302 37.7546C213.091 38.9205 212.069 40.0727 210.401 41.3573C210.014 41.661 209.653 41.8697 209.291 42.0784C208.448 42.5654 208.035 42.9642 207.82 43.0083L205.79 44.5015L205.277 43.7531L206.369 42.7214L199.63 33.2766ZM205.034 35.5392L205.903 34.9572C206.651 34.4448 207.019 33.8305 207.077 33.2348C207.135 32.6391 206.933 31.8721 206.421 31.1236C205.908 30.3752 205.389 30.0323 204.793 29.9745C204.197 29.9168 203.405 30.2137 202.631 30.8212C202.244 31.1249 201.883 31.3336 201.591 31.6629L201.324 31.897L204.38 36.0772C204.285 36.0517 204.647 35.843 205.034 35.5392ZM209.819 40.4883C210.834 39.7417 211.443 38.9882 211.552 38.2025C211.661 37.4168 211.459 36.6497 210.946 35.9012C210.339 35.1273 209.75 34.664 209.154 34.6062C208.464 34.523 207.766 34.8454 206.872 35.5224C205.857 36.2691 205.229 36.7119 204.962 36.9461L208.227 41.4878C208.443 41.4436 208.95 41.0703 209.819 40.4883Z" fill="#313131"/>
<path d="M212.191 22.8915L213.929 21.7275L224.865 29.9541L225.924 29.423L226.436 30.1715L222.332 32.9424L221.82 32.194L223.006 31.1877L220.746 29.3598L216.16 32.409L216.949 35.1668L218.369 34.427L218.882 35.1755L215.165 37.6427L214.653 36.8942L215.478 36.0967L212.191 22.8915ZM214.857 24.7263L213.515 23.6536L214.083 25.3338L215.819 31.4009L219.777 28.7946L214.857 24.7263Z" fill="#313131"/>
<path d="M228.765 27.9434C227.643 27.9484 226.623 27.5733 225.559 26.9826C224.615 26.3224 223.748 25.377 222.958 24.1466C222.262 22.9416 221.877 21.718 221.777 20.5707C221.677 19.4235 222.008 18.1881 222.573 17.2191C223.164 16.1551 223.988 15.3575 225.098 14.6364C225.942 14.1494 226.975 13.7133 228.319 13.2586L228.897 13.0058L230.446 15.9674L229.361 16.5935L227.697 14.8233C227.506 14.7724 227.17 14.886 226.739 14.9743C226.308 15.0625 225.826 15.3407 225.344 15.619C224.621 16.0364 224.158 16.6253 223.885 17.2651C223.586 17.9999 223.477 18.7856 223.628 19.7428C223.779 20.6999 224.215 21.7335 224.867 22.7229C225.518 23.7123 226.195 24.6068 226.949 25.2161C227.702 25.8254 228.507 26.2446 229.362 26.4738C230.217 26.703 230.984 26.5011 231.828 26.0141C232.43 25.6663 232.817 25.3625 232.989 25.1029C233.255 24.8687 233.452 24.514 233.529 24.2289L233.252 22.2196L234.311 21.6885L235.271 24.1867C235.03 24.3258 234.764 24.56 234.447 24.9842C234.155 25.3134 233.863 25.6426 233.476 25.9464C233.184 26.2756 232.702 26.5539 232.22 26.8321C231.084 27.6483 229.886 27.9384 228.765 27.9434Z" fill="#313131"/>
<path d="M238.514 10.1844C238.604 9.08814 238.884 8.04276 239.424 7.16882C239.964 6.29487 240.642 5.66192 241.606 5.10537C242.691 4.47924 243.769 4.25871 244.77 4.32328C245.771 4.38786 246.791 4.76301 247.614 5.49282C248.437 6.22263 249.209 7.14249 249.93 8.25244C250.696 9.57792 251.055 10.8966 251.13 12.1388C251.204 13.3811 251.019 14.4519 250.454 15.4209C249.889 16.3899 249.185 17.1179 248.221 17.6744C247.136 18.3006 246.058 18.5211 244.962 18.431C243.961 18.3665 242.941 17.9913 242.092 17.3565C241.244 16.7218 240.377 15.7764 239.776 14.5969L237.151 16.0324L239.743 20.8014L241.233 20.1821L241.625 21.0001L237.097 23.4537L236.705 22.6357L237.961 21.7499L232.454 11.5144L230.989 12.0387L230.502 11.1952L234.909 8.81118L235.396 9.65468L234.141 10.5404L236.525 14.9479L239.245 13.5379C238.714 12.4789 238.493 11.4012 238.514 10.1844ZM240.277 8.92536C240.136 10.2117 240.54 11.7459 241.584 13.5534C242.488 15.1198 243.399 16.2807 244.558 16.8969C245.717 17.513 246.719 17.5776 247.898 16.9769C248.957 16.4458 249.522 15.4768 249.543 14.26C249.563 13.0432 249.16 11.5091 248.211 9.72706C247.307 8.16058 246.395 6.99971 245.331 6.40904C244.267 5.81837 243.171 5.72833 242.112 6.25942C241.053 6.79051 240.418 7.639 240.277 8.92536Z" fill="#313131"/>
<path d="M259.237 5.44985C259.947 5.84363 260.821 6.38337 261.98 6.99951C262.758 7.51379 263.278 7.85665 263.727 8.079C264.177 8.30136 264.367 8.35228 264.583 8.30818L265.324 8.20133L265.716 9.01935L263.624 9.98649C263.383 10.1256 263.003 10.0238 262.458 9.77596C261.913 9.52815 261.229 9.03933 260.286 8.37909C259.273 7.59835 258.399 7.05861 257.784 6.69029C257.17 6.32197 256.67 6.28968 256.333 6.40335L255.274 6.93444L257.557 11.7221L259.116 11.2233L259.508 12.0413L254.841 14.2539L254.449 13.4359L255.775 12.6706L250.844 2.18227L249.405 2.61151L249.013 1.79349L253.559 -0.349516L253.951 0.468495L252.6 1.3288L254.857 6.21147L256.278 5.47166L257.413 -1.04838L255.854 -0.549581L255.462 -1.3676L259.647 -3.3019L260.039 -2.48388L258.808 -1.69314L257.432 4.96603C257.837 4.97285 258.502 5.1511 259.237 5.44985Z" fill="#313131"/>
<path d="M268.444 7.20367C267.373 7.01859 266.499 6.47885 265.701 5.65401C264.904 4.82917 264.157 3.81426 263.607 2.44468C263.058 1.07509 262.768 -0.123058 262.883 -1.31439C262.999 -2.50572 263.279 -3.55111 263.939 -4.49462C264.599 -5.43813 265.494 -6.11518 266.527 -6.55124C268.353 -7.28422 269.881 -7.28239 271.325 -6.58986C272.769 -5.89733 273.914 -4.47 274.717 -2.52339C275.267 -1.15381 275.531 0.139375 275.416 1.33071C275.3 2.52204 274.995 3.66244 274.334 4.60595C273.674 5.54947 272.78 6.22653 271.746 6.66259C270.567 7.26325 269.514 7.38874 268.444 7.20367ZM264.843 -2.92814C264.607 -1.66724 264.916 -0.158523 265.624 1.76262C266.382 3.4937 267.268 4.74961 268.306 5.43532C269.319 6.21606 270.416 6.30609 271.57 5.80046C272.698 5.38987 273.359 4.44635 273.595 3.18545C273.831 1.92454 273.547 0.320802 272.719 -1.53077C271.961 -3.26185 271.075 -4.51776 270.037 -5.20347C268.998 -5.88917 267.927 -6.07425 266.773 -5.56862C265.714 -5.03753 265.079 -4.18904 264.843 -2.92814Z" fill="#313131"/>
<path d="M275.802 -8.85355L274.293 -8.54481L274.022 -9.43241L276.399 -10.3232C276.83 -10.4114 277.312 -10.6897 277.889 -10.9425C278.467 -11.1953 278.828 -11.404 279.139 -11.4226C280.724 -12.0165 281.991 -12.1861 282.847 -11.9569C283.702 -11.7277 284.36 -11.1439 284.701 -10.1358C284.998 -9.34321 285.08 -8.50655 284.781 -7.77175C284.482 -7.03694 283.993 -6.35307 283.27 -5.93565C284.399 -6.34624 285.331 -6.40216 286.186 -6.17299C287.041 -5.94381 287.674 -5.26493 288.015 -4.25684C288.426 -3.12825 288.405 -1.91146 287.84 -0.942481C287.25 0.121531 285.994 1.0073 284.073 1.71481C283.616 1.89806 283.28 2.01173 282.849 2.09994C281.961 2.37139 281.384 2.6242 281.169 2.66831L278.791 3.55907L278.494 2.76651L279.915 2.02671L275.802 -8.85355ZM280.418 -5.17222L281.426 -5.51323C282.218 -5.81015 282.751 -6.2785 283.024 -6.91827C283.298 -7.55804 283.286 -8.27421 282.894 -9.09223C282.597 -9.88478 282.129 -10.4177 281.584 -10.6655C281.039 -10.9133 280.203 -10.8319 279.195 -10.4909C278.738 -10.3077 278.376 -10.099 277.92 -9.91573L277.558 -9.70703L279.41 -4.83119C279.53 -4.90075 279.866 -5.01444 280.418 -5.17222ZM283.586 0.871326C284.714 0.460732 285.488 -0.146758 285.882 -0.856099C286.276 -1.56544 286.264 -2.2816 285.923 -3.28969C285.556 -4.20274 285.088 -4.73566 284.543 -4.98348C283.903 -5.25676 283.067 -5.17538 282.033 -4.73932C280.81 -4.35419 280.112 -4.0318 279.776 -3.91813L281.741 1.29373C282 1.46516 282.672 1.23781 283.586 0.871326Z" fill="#313131"/>
<path d="M303.326 -19.2015L303.597 -18.3139L302.177 -17.5741L305.522 -6.49198L307.247 -6.84483L307.518 -5.95723L302.529 -4.44218L302.257 -5.32977L303.652 -5.97454L300.237 -17.1772L294.48 -15.4602L297.896 -4.2576L299.62 -4.61045L299.891 -3.72286L294.902 -2.2078L294.63 -3.09539L296.025 -3.74016L292.68 -14.8223L291.076 -14.539L290.805 -15.4266L303.326 -19.2015Z" fill="#313131"/>
<path d="M497.779 -10.4889L496.455 -11.251L496.779 -12.0809L501.499 -10.307L501.174 -9.47719L499.628 -9.78959L497.855 -5.0702L504.044 -2.69886L505.817 -7.41826L504.494 -8.18035L504.818 -9.0102L509.537 -7.23634L509.213 -6.40651L507.762 -6.69344L503.617 4.21497L504.966 4.88203L504.642 5.71186L499.923 3.93803L500.247 3.10818L501.767 3.51562L503.738 -1.55846L497.549 -3.92979L495.578 1.14428L496.997 1.93183L496.673 2.76168L491.884 0.867335L492.208 0.0374887L493.729 0.444925L497.779 -10.4889Z" fill="#313131"/>
<path d="M515.77 -4.64954L517.69 -3.8297L516.672 9.85199L517.616 10.5122L517.291 11.3421L512.743 9.3086L513.068 8.47875L514.563 8.98122L514.946 6.02834L509.923 3.86754L508.026 6.00739L509.444 6.79494L509.12 7.62479L505.022 5.81367L505.346 4.98382L506.487 5.28939L515.77 -4.64954ZM515.716 -1.40475L515.959 -3.07125L514.886 -1.72895L510.774 2.97495L515.157 4.86249L515.716 -1.40475Z" fill="#313131"/>
<path d="M529.482 3.09888L527.76 1.92435L528.179 1.11998L532.555 3.41309L531.049 12.0748L530.508 14.4761L532.113 12.6655L538.281 6.37327L542.658 8.6664L542.238 9.47077L540.294 8.74594L536.243 19.6798L537.611 20.6574L537.192 21.4618L532.461 18.9718L532.88 18.1674L534.445 18.7904L537.559 10.9672L538.882 7.55279L536.915 9.57213L529.681 16.801L528.617 16.2103L530.111 6.83248L530.768 3.23984L528.832 6.28591L524.273 13.4166L525.831 14.4452L525.411 15.2495L521.13 12.9819L521.549 12.1775L523.019 12.775L529.482 3.09888Z" fill="#313131"/>
<path d="M548.852 12.1595L550.599 13.239L548.01 26.7033L548.954 27.3636L548.535 28.168L544.304 25.7102L544.723 24.9059L546.193 25.5034L546.836 22.7219L542.181 19.9468L540.024 21.9152L541.297 22.8674L540.878 23.6718L537.097 21.4364L537.516 20.632L538.631 21.0326L548.852 12.1595ZM548.417 15.3025L548.85 13.6869L547.612 14.8832L542.911 19.1238L547.047 21.556L548.417 15.3025Z" fill="#313131"/>
<path d="M557.121 18.5512L556.064 17.5549L556.578 16.776L558.655 18.1474C559.01 18.3443 559.434 18.6617 559.789 18.8586C560.403 19.2269 560.948 19.4747 561.467 19.8176C562.93 20.8207 563.892 21.7915 564.138 22.7741C564.384 23.7567 564.199 24.8276 563.513 25.8661C562.973 26.7401 562.32 27.278 561.502 27.6699C560.684 28.0619 559.847 28.1433 558.966 28.0091C558.086 27.875 557.161 27.5253 556.287 26.9855C555.932 26.7887 555.673 26.6172 555.343 26.3253C554.989 26.1284 554.824 25.9825 554.755 25.862L552.501 29.3323L554.527 30.8938L554.012 31.6727L548.889 28.3646L549.404 27.5857L550.848 28.2782L557.121 18.5512ZM556.801 26.2067C557.675 26.7464 558.435 26.9501 559.297 26.7737C560.16 26.5973 560.934 25.9898 561.67 24.7612C562.21 23.8872 562.439 23.0319 562.212 22.3599C561.984 21.6878 561.446 21.0344 560.503 20.3741C560.148 20.1772 559.794 19.9804 559.344 19.758C559.084 19.5866 558.894 19.5356 558.894 19.5356L555.269 25.083C555.598 25.375 556.022 25.6924 556.801 26.2067Z" fill="#313131"/>
<path d="M561.53 35.9278C561.094 34.8942 560.994 33.747 561.179 32.6762C561.364 31.6054 561.911 30.3258 562.742 29.1227C563.549 28.0145 564.494 27.1474 565.553 26.6163C566.612 26.0852 567.785 25.8902 568.976 26.0057C570.167 26.1212 571.282 26.5218 572.295 27.3025C573.074 27.8168 573.967 28.6671 574.834 29.6125L575.328 30.0503L573.208 32.6399L572.169 31.9542L573.161 29.7752C573.117 29.5597 572.882 29.2932 572.674 28.9317C572.465 28.5703 571.946 28.2274 571.426 27.8845C570.743 27.3957 570.077 27.2175 569.266 27.2038C568.455 27.1902 567.662 27.4871 566.914 27.9996C566.165 28.512 565.341 29.3096 564.68 30.2531C564.02 31.1966 563.55 32.191 563.2 33.1159C562.946 34.0662 562.811 34.947 563.083 35.8346C563.354 36.7222 563.797 37.3501 564.576 37.8644C565.095 38.2073 565.52 38.5246 565.9 38.6265C566.28 38.7284 566.565 38.8048 566.876 38.7861L568.588 37.7171L569.481 38.5674L567.539 40.4917C567.279 40.3203 566.899 40.2185 566.45 39.9961C565.974 39.8688 565.62 39.6719 565.145 39.5446C564.79 39.3477 564.34 39.1253 563.821 38.7825C562.833 37.9067 561.966 36.9613 561.53 35.9278Z" fill="#313131"/>
<path d="M588.79 39.8709L588.18 40.6244L586.623 39.5958L580.701 46.8706L583.364 46.0563L591.649 44.4057L591.966 43.9815L590.865 42.7697L591.474 42.0162L595.476 45.3293L594.866 46.0827L593.543 45.3206L586.136 54.3365L587.263 55.4533L586.679 56.1117L582.677 52.7987L583.261 52.1402L584.655 53.0228L590.697 45.6784L588.249 46.4487L579.749 48.1433L579.311 48.6372L580.507 49.8744L579.923 50.5328L575.827 47.1943L576.411 46.5359L577.709 47.3931L585.116 38.3772L584.084 37.2859L584.693 36.5324L588.79 39.8709Z" fill="#313131"/>
<path d="M598.267 48.216C598.812 48.4639 599.141 48.7558 599.496 48.9527C599.85 49.1495 600.18 49.4415 600.439 49.6129C601.592 50.6346 602.338 51.6495 602.584 52.6322C602.83 53.6148 602.601 54.4701 601.897 55.1981C601.192 55.9261 600.469 56.3435 599.563 56.3044C598.726 56.3857 597.871 56.1566 597.092 55.6423C597.89 56.4671 598.377 57.3106 598.458 58.1473C598.54 58.984 598.215 59.8138 597.631 60.4722C596.756 61.4598 595.697 61.9909 594.6 61.9009C593.479 61.9059 592.32 61.2897 590.908 60.0966C590.319 59.6332 589.946 59.1258 589.572 58.6183C589.199 58.1108 588.99 57.7494 588.756 57.4829C588.617 57.2419 588.478 57.0009 588.408 56.8804L590.832 54.6778L591.49 55.2617L590.309 57.3897C590.536 58.0618 591.074 58.7152 591.802 59.4195C592.461 60.0034 593.005 60.2512 593.747 60.1443C594.393 60.012 595.091 59.6896 595.7 58.9362C596.259 58.3728 596.437 57.7076 596.52 57.0169C596.603 56.3262 596.091 55.5777 595.268 54.8479L594.28 53.9721L594.985 53.2442L595.808 53.974C596.232 54.2914 596.656 54.6087 597.131 54.7361C597.606 54.8634 598.107 54.8957 598.659 54.7379C599.21 54.5801 599.597 54.2764 600.035 53.7826C600.619 53.1241 600.867 52.5794 600.734 51.9328C600.697 51.3117 600.324 50.8042 599.665 50.2204C599.267 49.808 598.912 49.6111 598.462 49.3887C598.108 49.1918 597.797 49.2105 597.582 49.2546L596.18 50.3049L595.262 49.5497L597.09 47.2893C597.393 47.6763 597.748 47.8732 598.267 48.216Z" fill="#313131"/>
<path d="M609.407 59.859L608.522 58.6031L609.201 57.9701L610.96 59.7658C611.289 60.0577 611.688 60.4701 612.182 60.908C612.676 61.3459 613.005 61.6378 613.17 61.7838C614.366 63.021 615.113 64.036 615.169 64.9676C615.345 65.8298 615.021 66.6596 614.316 67.3876C613.637 68.0205 612.94 68.3429 612.198 68.4498C611.457 68.5566 610.601 68.3274 609.823 67.8132C610.715 68.6635 611.202 69.507 611.258 70.4387C611.314 71.3704 611.015 72.1052 610.311 72.8331C609.461 73.7257 608.332 74.1363 607.236 74.0463C606.044 73.9308 604.721 73.1687 603.265 71.76C602.935 71.4681 602.632 71.0811 602.398 70.8146C601.765 70.1358 601.366 69.7233 601.201 69.5774L599.442 67.7817L600.12 67.1488L601.393 68.1009L609.407 59.859ZM603.874 71.0065C604.767 71.8569 605.545 72.3711 606.357 72.3848C607.168 72.3984 607.865 72.076 608.544 71.4431C609.223 70.8101 609.522 70.0753 609.485 69.4542C609.447 68.8331 609.03 68.1101 608.232 67.2852C607.34 66.4349 606.776 65.8765 606.542 65.6101L602.634 69.5537C602.678 69.7693 603.171 70.2072 603.874 71.0065ZM608.095 65.5169L608.823 66.2212C609.481 66.8051 610.096 67.1734 610.717 67.1361C611.338 67.0988 612.036 66.7765 612.619 66.118C613.203 65.4596 613.546 64.9403 613.509 64.3192C613.472 63.6981 613.054 62.9751 612.326 62.2708C611.997 61.9788 611.668 61.6869 611.243 61.3695L610.914 61.0776L607.272 64.7871C607.462 64.838 607.696 65.1045 608.095 65.5169Z" fill="#313131"/>
<path d="M621.709 70.5905L623.139 72.0943L616.755 84.1344L617.407 85.1239L616.728 85.7568L613.424 82.1214L614.103 81.4885L615.255 82.5102L616.754 79.9579L613.051 75.9101L610.382 77.1301L611.363 78.4114L610.684 79.0444L607.684 75.7959L608.362 75.163L609.28 75.9183L621.709 70.5905ZM620.228 73.4534L621.136 71.9651L619.595 72.7745L613.895 75.4231L617.129 78.938L620.228 73.4534Z" fill="#313131"/>
<path d="M619.153 87.7308C618.958 86.5582 619.143 85.4873 619.639 84.3979C620.134 83.3084 620.915 82.2953 622.076 81.3841C623.142 80.4474 624.296 79.9418 625.494 79.6517C626.692 79.3616 627.884 79.4771 628.998 79.8777C630.113 80.2783 631.057 80.9385 631.899 81.9789C632.506 82.7528 633.158 83.7422 633.758 84.9218L634.011 85.4988L631.328 87.5299L630.556 86.6101L632.092 84.6789C632.048 84.4634 632.029 84.1528 631.82 83.7913C631.612 83.4299 631.333 82.9479 630.935 82.5354C630.397 81.882 629.782 81.5137 629.022 81.31C628.262 81.1063 627.425 81.1877 626.538 81.4591C625.65 81.7306 624.686 82.2871 623.766 83.0592C622.846 83.8313 622.116 84.6543 621.602 85.4332C621.062 86.3072 620.833 87.1625 620.82 87.9737C620.806 88.7849 621.103 89.5774 621.71 90.3513C622.179 90.8843 622.508 91.1762 622.863 91.3731C623.217 91.57 623.477 91.7414 623.787 91.7228L625.683 91.1103L626.335 92.0997L624.02 93.5166C623.855 93.3706 623.526 93.0787 623.102 92.7613C622.652 92.5389 622.323 92.247 621.994 91.9551C621.664 91.6632 621.24 91.3458 620.867 90.8383C619.879 89.9625 619.348 88.9035 619.153 87.7308Z" fill="#313131"/>
<path d="M638.177 94.6615C639.324 94.5614 640.3 94.721 641.224 95.0707C642.149 95.4204 642.972 96.1502 643.58 96.9241C644.326 97.939 644.693 98.8521 644.818 99.9043C644.849 100.931 644.689 101.907 644.124 102.876C643.559 103.845 642.804 104.763 641.668 105.579C640.507 106.49 639.233 107.065 638.035 107.356C636.836 107.646 635.74 107.556 634.625 107.155C633.51 106.754 632.757 106.145 632.08 105.251C631.333 104.236 630.897 103.202 630.772 102.15C630.646 101.098 630.901 100.147 631.371 99.153C631.936 98.184 632.691 97.266 633.732 96.4243L631.935 94.0076L627.583 97.3232L628.418 98.7692L627.67 99.2817L624.588 95.1966L625.337 94.6841L626.463 95.8009L635.674 88.7962L634.909 87.4707L635.682 86.8632L638.694 90.8278L637.921 91.4353L636.794 90.3185L632.829 93.3305L634.626 95.7473C635.996 95.1976 637.099 94.882 638.177 94.6615ZM639.797 96.2161C638.555 96.2907 637.065 96.91 635.396 98.1945C633.969 99.3399 632.973 100.397 632.547 101.607C632.121 102.817 632.246 103.869 632.993 104.884C633.765 105.804 634.664 106.249 635.932 106.079C637.174 106.005 638.595 105.265 640.238 104.075C641.665 102.93 642.661 101.873 643.087 100.663C643.513 99.4527 643.388 98.4006 642.711 97.5061C642.034 96.6117 641.039 96.1415 639.797 96.2161Z" fill="#313131"/>
<path d="M646.126 114.413C645.922 115.173 645.452 116.168 644.931 117.352C644.511 118.156 644.333 118.822 644.136 119.176C644.034 119.556 643.933 119.937 644.002 120.057L644.229 120.729L643.481 121.242L642.152 119.358C642.013 119.117 642.02 118.711 642.268 118.166C642.516 117.622 642.84 116.792 643.31 115.797C643.926 114.638 644.276 113.713 644.549 113.074C644.822 112.434 644.76 111.908 644.646 111.572L643.994 110.582L639.624 113.587L640.339 115.103L639.59 115.615L636.75 111.391L637.498 110.879L638.504 112.065L648.088 105.568L647.443 104.173L648.192 103.66L650.963 107.764L650.214 108.277L649.208 107.09L644.743 110.07L645.603 111.421L652.188 111.555L651.448 110.135L652.196 109.622L654.733 113.46L653.985 113.972L652.953 112.881L646.204 112.6C646.387 113.057 646.329 113.653 646.126 114.413Z" fill="#313131"/>
<path d="M645.753 123.786C645.818 122.784 646.098 121.739 646.853 120.821C647.513 119.877 648.459 119.01 649.664 118.315C650.894 117.524 652.118 117.139 653.265 117.039C654.507 116.964 655.578 117.149 656.573 117.619C657.567 118.089 658.39 118.819 659.016 119.904C659.99 121.591 660.299 123.099 659.771 124.69C659.268 126.185 658.101 127.501 656.268 128.64C655.037 129.431 653.814 129.816 652.546 129.986C651.304 130.06 650.233 129.875 649.143 129.379C648.149 128.909 647.351 128.084 646.7 127.095C646.004 125.89 645.784 124.812 645.753 123.786ZM655.291 118.6C654.074 118.58 652.515 119.078 650.802 120.147C649.21 121.147 648.119 122.179 647.598 123.363C646.982 124.522 647.107 125.574 647.733 126.659C648.385 127.648 649.354 128.213 650.571 128.234C651.883 128.28 653.347 127.756 655.06 126.687C656.652 125.687 657.743 124.655 658.264 123.471C658.76 122.381 658.755 121.26 658.128 120.175C657.477 119.186 656.603 118.646 655.291 118.6Z" fill="#313131"/>
<path d="M662.783 128.654L662.259 127.19L663.102 126.703L664.354 128.872C664.563 129.233 664.841 129.715 665.215 130.222C665.588 130.73 665.797 131.091 665.936 131.332C666.745 132.873 667.156 134.002 666.996 134.978C666.836 135.954 666.373 136.542 665.504 137.124C664.781 137.542 663.919 137.718 663.133 137.61C662.348 137.501 661.638 137.107 661.031 136.333C661.657 137.418 661.833 138.28 661.674 139.256C661.54 140.136 660.956 140.795 660.112 141.282C659.028 141.908 657.881 142.008 656.766 141.607C655.651 141.207 654.619 140.115 653.575 138.308C653.367 137.947 653.183 137.49 652.975 137.128C652.488 136.285 652.235 135.708 652.165 135.587L650.913 133.419L651.731 133.027L652.617 134.282L662.783 128.654ZM654.324 137.796C654.95 138.88 655.583 139.559 656.343 139.763C657.103 139.966 657.845 139.86 658.689 139.373C659.532 138.886 659.995 138.297 660.148 137.726C660.301 137.156 660.125 136.294 659.568 135.33C658.942 134.246 658.524 133.523 658.385 133.282L653.496 135.944C653.584 136.375 653.837 136.952 654.324 137.796ZM659.906 133.689L660.367 134.628C660.785 135.351 661.374 135.814 661.944 135.967C662.609 136.145 663.256 136.013 664.099 135.526C664.822 135.108 665.26 134.615 665.413 134.044C665.566 133.474 665.364 132.707 664.807 131.743C664.598 131.382 664.295 130.995 664.111 130.538L663.903 130.177L659.349 132.725C659.488 132.966 659.628 133.207 659.906 133.689Z" fill="#313131"/>
<path d="M677.342 154.149L676.524 154.541L675.663 153.19L665.244 158.241L665.813 159.921L664.995 160.313L662.713 155.526L663.531 155.134L664.391 156.485L674.905 151.459L672.275 146.069L661.736 151.189L662.304 152.87L661.486 153.262L659.178 148.569L659.996 148.177L660.787 149.407L671.206 144.356L670.707 142.797L671.525 142.405L677.342 154.149Z" fill="#313131"/>
<path d="M667.038 163.713C667.223 162.642 667.763 161.768 668.492 160.945C669.317 160.147 670.332 159.401 671.607 158.826C672.881 158.25 674.174 157.986 675.366 158.101C676.557 158.217 677.602 158.497 678.546 159.157C679.49 159.817 680.167 160.712 680.603 161.745C681.336 163.571 681.429 165.124 680.641 166.543C679.949 167.987 678.521 169.132 676.575 169.935C675.205 170.485 673.912 170.749 672.721 170.634C671.529 170.518 670.389 170.213 669.445 169.553C668.502 168.892 667.825 167.998 667.294 166.939C666.978 165.836 666.783 164.663 667.038 163.713ZM677.195 160.017C675.934 159.781 674.425 160.09 672.479 160.893C670.748 161.651 669.492 162.537 668.806 163.575C668.12 164.614 667.935 165.685 668.441 166.839C668.947 167.993 669.795 168.628 671.056 168.864C672.317 169.1 673.921 168.816 675.772 167.988C677.503 167.23 678.759 166.344 679.445 165.306C680.131 164.267 680.221 163.171 679.81 162.042C679.304 160.888 678.456 160.253 677.195 160.017Z" fill="#313131"/>
<path d="M676.947 176.146C675.223 176.499 673.861 176.643 672.885 176.484C672.41 176.356 671.934 176.229 671.7 175.963C671.371 175.671 671.137 175.404 670.954 174.948C670.701 174.371 670.613 173.94 670.594 173.629L671.989 172.984C672.008 173.295 672.191 173.751 672.444 174.328C672.488 174.544 672.652 174.69 672.817 174.836C672.982 174.982 673.172 175.033 673.457 175.109C675.193 175.472 678.21 174.855 682.414 173.231L683.784 172.681L683.222 170.596L684.135 170.229L687.951 180.317L687.038 180.683L686.229 179.142L675.348 183.255L675.796 185.005L674.909 185.276L672.9 179.849L673.787 179.577L674.641 181.334L685.521 177.221L684.22 173.715L682.635 174.309C680.542 175.276 678.672 175.793 676.947 176.146Z" fill="#313131"/>
<path d="M688.029 184.208L687.72 182.7L688.608 182.428L691.582 191.475L688.938 192.6L688.597 191.592L690.119 190.472L688.762 186.034L683.747 187.644L684.795 190.574L686.374 190.385L686.715 191.394L682.587 192.732L682.246 191.724L683.667 190.984L682.739 187.985L677.483 189.735L679.308 194.706L681.907 194.892L681.912 196.014L678.634 196.46L675.363 186.62L676.251 186.349L676.896 187.744L688.029 184.208Z" fill="#313131"/>
<path d="M692.815 199.038L691.792 196.013L687.798 196.471L687.508 195.273L692.371 194.233L695.57 205.48L690.771 207.046L690.455 205.943L694.063 204.261L693.281 201.098L681.94 204.272L682.469 206.859L681.581 207.13L679.644 200.296L680.531 200.024L681.353 202.281L692.815 199.038Z" fill="#313131"/>
<path d="M689.874 214.954L689.698 214.092C689.464 213.826 688.988 213.698 688.323 213.52C687.658 213.342 686.872 213.233 685.896 213.074C684.921 212.914 684.255 212.736 683.78 212.608C683.305 212.481 683.045 212.31 683.001 212.094L682.447 209.603L683.309 209.426L683.631 210.124C683.701 210.244 683.96 210.416 684.315 210.613C684.695 210.715 685.265 210.867 686 211.166C686.855 211.395 687.616 211.599 688.281 211.777C688.826 212.025 689.275 212.247 689.605 212.539C689.644 211.633 689.942 210.898 690.406 210.309C690.99 209.651 691.713 209.234 692.575 209.057C693.988 208.723 695.154 208.934 695.882 209.638C696.61 210.342 697.211 211.522 697.589 213.151C697.703 213.487 697.766 214.013 697.828 214.539C697.866 215.16 697.954 215.591 698.068 215.927L698.692 218.539L697.804 218.811L697.185 217.321L685.875 219.994L686.133 221.693L685.297 221.774L683.978 216.43L684.841 216.254L685.409 217.934L690.202 216.774L689.874 214.954ZM696.871 214.69C696.808 214.164 696.746 213.638 696.658 213.207C696.412 212.224 696.064 211.622 695.57 211.184C695.076 210.746 694.265 210.732 693.282 210.978C692.3 211.224 691.577 211.642 691.208 212.256C690.84 212.87 690.731 213.656 690.977 214.639C691.223 215.621 691.356 216.268 691.495 216.509L697.054 215.147L696.871 214.69Z" fill="#313131"/>
<path d="M699.058 225.156L698.371 222.018L694.359 222.166L694.164 220.993L699.114 220.384L701.357 231.782L696.469 232.917L696.274 231.744L699.996 230.399L699.524 227.216L687.937 229.408L688.25 232.039L687.388 232.215L686.002 225.223L686.865 225.047L687.565 227.373L699.058 225.156Z" fill="#313131"/>
<path d="M689.695 242.611C690.165 241.617 690.921 240.699 691.885 240.142C692.874 239.491 694.098 239.105 695.486 238.866C696.849 238.722 698.161 238.768 699.25 239.264C700.365 239.664 701.283 240.42 702.055 241.339C702.827 242.259 703.238 243.388 703.407 244.656C703.558 245.613 703.563 246.735 703.397 248.116L703.339 248.712L700.018 248.942L699.848 247.674L702.106 246.853C702.252 246.689 702.353 246.308 702.36 245.903C702.367 245.497 702.425 244.902 702.267 244.35C702.16 243.608 701.838 242.911 701.274 242.352C700.711 241.794 700.002 241.4 699.051 241.146C698.101 240.891 697.074 240.922 695.832 240.996C694.659 241.191 693.677 241.437 692.738 241.899C691.8 242.36 691.146 242.898 690.657 243.582C690.169 244.266 690.034 245.147 690.116 245.983C690.248 246.63 690.311 247.156 690.52 247.517C690.633 247.853 690.867 248.12 691.102 248.386L693.002 248.896L692.982 250.112L690.263 249.995C690.219 249.78 690.131 249.349 689.853 248.867C689.669 248.41 689.461 248.049 689.372 247.617C689.284 247.186 689.101 246.73 689.064 246.109C689.084 244.892 689.2 243.701 689.695 242.611Z" fill="#313131"/>
<path d="M704.598 256.179L703.666 256.235L703.244 254.39L693.85 255.235L696.238 256.587L703.318 261.336L703.844 261.274L703.897 259.556L704.828 259.5L705.291 264.615L704.36 264.671L704.025 263.258L692.433 264.327L692.405 265.95L691.474 266.006L691.036 260.796L691.968 260.74L692.346 262.369L701.835 261.55L699.516 260.318L692.367 255.448L691.746 255.486L691.693 257.203L690.762 257.259L690.324 252.049L691.256 251.993L691.565 253.502L703.157 252.432L703.254 250.93L704.186 250.874L704.598 256.179Z" fill="#313131"/>
<path d="M705.879 276.486L701.005 276.81L700.93 275.568L704.69 274.843L704.663 270.762L692.912 271.28L692.858 274.525L691.926 274.581L691.548 267.248L692.48 267.192L692.756 269.201L704.317 268.632L704.446 266.629L705.378 266.574L705.879 276.486Z" fill="#313131"/>
<path d="M704.798 279.761L704.99 278.285L705.896 278.324L705.858 283.407L704.952 283.368L704.764 281.789L699.776 281.777L699.736 288.387L704.724 288.4L704.916 286.923L705.822 286.962L705.81 291.95L704.904 291.911L704.69 290.428L693.067 290.471L692.875 291.947L691.968 291.908L691.981 286.92L692.887 286.959L693.075 288.538L698.469 288.557L698.508 281.947L693.115 281.928L692.898 283.499L691.991 283.46L691.934 278.352L692.84 278.391L693.054 279.874L704.798 279.761Z" fill="#313131"/>
<path d="M705.84 298.68L705.806 300.708L692.733 304.641L692.522 305.807L691.616 305.768L691.818 300.831L692.725 300.87L692.818 302.423L695.671 301.66L695.905 296.222L693.226 295.199L693.008 296.77L692.102 296.731L692.272 292.295L693.179 292.334L693.279 293.481L705.84 298.68ZM702.79 299.799L704.419 299.42L702.734 298.867L696.805 296.667L696.558 301.388L702.79 299.799Z" fill="#313131"/>
<path d="M696.204 311.072C694.494 310.613 693.284 310.187 692.435 309.553C692.011 309.235 691.682 308.943 691.568 308.607C691.36 308.246 691.366 307.84 691.373 307.434C691.431 306.839 691.438 306.433 691.609 306.174L693.137 306.175C693.06 306.461 693.028 306.961 692.97 307.557C692.919 307.747 692.963 307.962 693.102 308.203C693.147 308.419 693.311 308.565 693.571 308.736C694.913 309.809 697.98 310.529 702.46 310.914L703.962 311.011L704.332 308.87L705.238 308.909L704.294 319.656L703.387 319.617L703.345 317.874L691.812 316.821L691.423 318.652L690.517 318.613L691.043 312.846L691.95 312.886L691.941 314.818L703.474 315.872L703.777 312.082L702.085 311.934C699.797 311.729 697.845 311.41 696.204 311.072Z" fill="#313131"/>
<path d="M697.846 326.994C697.654 328.47 697.133 329.655 696.238 330.332C695.439 331.034 694.361 331.255 693.075 331.114C691.694 330.947 690.655 330.262 690.004 329.272C689.352 328.283 689.182 327.015 689.374 325.539C689.425 325.348 689.476 325.158 689.432 324.943C689.388 324.727 689.534 324.563 689.61 324.278C689.789 323.612 689.872 322.922 690.024 322.352L690.401 319.804L691.282 319.938L691.255 321.561L702.825 323.235L703.328 321.74L704.209 321.874L703.404 327.159L702.523 327.025L702.411 325.161L698.102 324.516L697.846 326.994ZM690.612 324.342C690.561 324.532 690.459 324.912 690.452 325.318C690.267 326.389 690.469 327.156 691.007 327.809C691.545 328.463 692.254 328.857 693.35 328.947C694.326 329.106 695.188 328.93 695.721 328.461C696.349 328.019 696.648 327.284 696.833 326.213L697.127 324.356L690.841 323.487C690.739 323.867 690.662 324.152 690.612 324.342ZM701.551 339.394L700.67 339.26L700.723 337.543L689.248 335.894L688.789 337.605L687.909 337.471L688.644 332.065L689.525 332.2L689.472 333.917L700.947 335.566L701.406 333.855L702.287 333.989L701.551 339.394Z" fill="#313131"/>
<path d="M698.74 347.605L699.312 346.23L700.168 346.459L699.033 351.452L698.178 351.223L698.301 349.626L693.403 348.517L691.982 354.961L696.88 356.07L697.452 354.695L698.307 354.924L697.198 359.822L696.343 359.593L696.44 358.091L685.073 355.656L684.596 357.056L683.741 356.827L684.849 351.929L685.705 352.159L685.608 353.66L690.911 354.776L692.332 348.332L687.029 347.217L686.501 348.807L685.646 348.578L686.78 343.585L687.635 343.814L687.538 345.316L698.74 347.605Z" fill="#313131"/>
<path d="M695.708 366.145L695.173 368.141L681.596 369.392L681.101 370.481L680.245 370.252L681.423 365.475L682.279 365.704L682.061 367.276L684.951 367.133L686.257 361.881L683.8 360.408L683.202 361.877L682.347 361.648L683.398 357.346L684.253 357.575L684.138 358.767L695.708 366.145ZM692.551 366.521L694.294 366.479L692.78 365.666L687.441 362.402L686.314 366.989L692.551 366.521Z" fill="#313131"/>
<path d="M690.182 381.063L691.097 379.17L691.927 379.494L690.369 384.169L681.566 383.949L679.158 383.813L681.26 385.09L688.428 390.27L686.87 394.945L686.04 394.621L686.48 392.6L674.967 390.33L674.275 391.774L673.445 391.45L675.131 386.299L675.96 386.623L675.623 388.265L683.872 390.169L687.439 390.921L685.128 389.284L676.877 383.202L677.278 382.087L686.752 382.08L690.498 382.167L687.134 380.654L679.388 377.254L678.619 378.984L677.789 378.659L679.322 374.079L680.151 374.403L679.839 375.949L690.182 381.063Z" fill="#313131"/>
<path d="M684.251 401.679L683.526 403.623L669.907 403.132L669.342 404.101L668.512 403.777L670.356 399.178L671.186 399.502L670.778 401.022L673.687 401.191L675.658 396.117L673.397 394.289L672.61 395.707L671.78 395.383L673.401 391.234L674.231 391.558L674.02 392.724L684.251 401.679ZM681.006 401.624L682.698 401.772L681.331 400.794L676.481 396.846L674.783 401.281L681.006 401.624Z" fill="#313131"/>
<path d="M679.183 410.71L680.014 409.507L680.844 409.831L679.828 412.105C679.605 412.555 679.503 412.935 679.306 413.29C679.033 413.929 678.88 414.5 678.633 415.044C677.889 416.679 677.108 417.692 676.17 418.153C675.257 418.52 674.23 418.55 672.951 418.004C672.051 417.559 671.367 417.07 670.855 416.322C670.342 415.573 670.14 414.806 670.085 413.874C670.029 412.943 670.283 411.992 670.728 411.093C670.925 410.738 671.001 410.453 671.198 410.098C671.395 409.744 671.446 409.554 671.567 409.484L667.823 407.87L666.616 410.093L665.786 409.769L668.29 404.226L669.12 404.551L668.617 406.046L679.183 410.71ZM671.627 411.538C671.183 412.437 671.169 413.248 671.44 414.136C671.712 415.023 672.465 415.633 673.745 416.179C674.739 416.649 675.551 416.663 676.128 416.41C676.825 416.088 677.314 415.404 677.784 414.41C677.981 414.055 678.083 413.675 678.21 413.2C678.287 412.915 678.338 412.724 678.363 412.629L672.25 409.973C672.174 410.258 671.926 410.803 671.627 411.538Z" fill="#313131"/>
<path d="M662.716 417.808C663.68 417.251 664.783 416.935 665.904 416.93C667.121 416.951 668.357 417.282 669.611 417.924C670.865 418.565 671.878 419.346 672.53 420.335C673.276 421.35 673.592 422.453 673.692 423.601C673.792 424.748 673.581 425.914 672.965 427.073C672.52 427.972 671.86 428.916 671.054 430.024L670.711 430.543L667.779 428.942L668.274 427.853L670.65 428.49C670.866 428.445 671.132 428.211 671.424 427.882C671.716 427.553 671.938 427.103 672.281 426.584C672.675 425.875 672.758 425.184 672.582 424.322C672.475 423.58 672.057 422.857 671.45 422.083C670.817 421.404 669.969 420.77 668.81 420.153C667.72 419.658 666.7 419.283 665.724 419.123C664.749 418.963 663.817 419.019 662.999 419.411C662.206 419.708 661.648 420.272 661.203 421.171C660.93 421.811 660.708 422.26 660.701 422.666C660.599 423.046 660.618 423.357 660.731 423.693L662.067 425.171L661.406 426.115L659.19 424.502C659.267 424.217 659.368 423.837 659.496 423.362C659.623 422.887 659.63 422.481 659.757 422.006C659.859 421.626 660.107 421.081 660.355 420.536C660.971 419.377 661.726 418.459 662.716 417.808Z" fill="#313131"/>
<path d="M663.088 445.307L662.309 444.793L663.078 443.063L654.972 438.345L656.148 440.799L659.091 448.819L659.541 449.042L660.614 447.7L661.392 448.214L658.789 452.609L658.01 452.095L658.582 450.72L648.537 444.871L647.585 446.144L646.781 445.725L649.41 441.234L650.215 441.654L649.496 443.193L657.673 448.032L656.446 445.768L653.527 437.652L652.913 437.284L651.815 438.721L651.011 438.302L653.665 433.717L654.47 434.136L653.872 435.606L663.917 441.455L664.843 440.277L665.622 440.791L663.088 445.307Z" fill="#313131"/>
<path d="M656.37 455.933C656.122 456.478 655.995 456.953 655.798 457.308C655.601 457.663 655.404 458.017 655.233 458.277C654.376 459.575 653.526 460.468 652.612 460.834C651.699 461.201 650.793 461.162 649.919 460.622C649.045 460.082 648.628 459.359 648.451 458.497C648.275 457.635 648.384 456.849 648.733 455.924C648.073 456.868 647.299 457.475 646.437 457.652C645.575 457.828 644.789 457.719 644.01 457.205C642.877 456.494 642.2 455.6 642.1 454.452C641.974 453.4 642.331 452.07 643.359 450.512C643.728 449.898 644.165 449.404 644.603 448.91C645.016 448.511 645.403 448.207 645.669 447.973C645.936 447.739 646.082 447.574 646.177 447.6L648.697 449.599L648.182 450.378L645.883 449.456C645.28 449.804 644.722 450.368 644.062 451.311C643.573 451.995 643.49 452.686 643.622 453.332C643.754 453.979 644.318 454.537 645.192 455.077C645.806 455.445 646.471 455.624 647.213 455.517C647.954 455.41 648.608 454.872 649.148 453.998L649.859 452.865L650.733 453.404L650.193 454.278C649.876 454.702 649.748 455.178 649.621 455.653C649.589 456.153 649.651 456.679 649.835 457.136C650.018 457.593 650.417 458.005 650.936 458.348C651.62 458.837 652.311 458.92 652.862 458.762C653.414 458.604 653.947 458.136 654.435 457.452C654.753 457.028 654.975 456.578 654.982 456.173C655.084 455.792 655.065 455.482 654.926 455.241L653.635 453.978L654.295 453.035L656.778 454.413C656.72 455.008 656.523 455.363 656.37 455.933Z" fill="#313131"/>
<path d="M646.582 468.895L647.699 467.768L648.478 468.282L647.012 470.334C646.72 470.663 646.497 471.113 646.129 471.727C645.786 472.247 645.589 472.601 645.418 472.861C644.44 474.229 643.495 475.096 642.607 475.367C641.72 475.639 640.839 475.505 640.085 474.895C639.402 474.406 638.864 473.753 638.687 472.891C638.485 472.124 638.594 471.338 638.918 470.508C638.258 471.452 637.484 472.059 636.596 472.331C635.734 472.507 634.854 472.373 634.1 471.764C633.087 470.983 632.53 470.019 632.43 468.872C632.33 467.724 632.833 466.229 634.077 464.627C634.369 464.298 634.566 463.944 634.858 463.614C635.467 462.861 635.81 462.342 635.93 462.272L637.397 460.22L638.176 460.735L637.414 462.058L646.582 468.895ZM634.666 465.091C633.885 466.104 633.63 467.054 633.642 467.77C633.654 468.487 634.167 469.235 634.945 469.749C635.699 470.359 636.459 470.562 637.106 470.43C637.752 470.298 638.406 469.76 639.041 468.911C639.821 467.898 640.215 467.189 640.387 466.929L635.859 463.679C635.738 463.748 635.301 464.242 634.666 465.091ZM640.721 468.343L640.086 469.191C639.597 469.875 639.419 470.54 639.551 471.187C639.683 471.834 640.126 472.462 640.81 472.95C641.494 473.439 642.159 473.618 642.78 473.58C643.332 473.422 643.96 472.98 644.62 472.036C644.912 471.707 645.134 471.257 645.331 470.902L645.528 470.548L641.355 467.494C641.305 467.684 641.038 467.919 640.721 468.343Z" fill="#313131"/>
<path d="M637.807 482.637L636.563 484.239L623.608 479.749L622.783 480.546L622.03 479.937L625.102 476.075L625.855 476.684L624.998 477.982L627.678 479.006L631.067 474.719L629.46 472.354L628.343 473.48L627.59 472.871L630.345 469.433L631.098 470.042L630.507 471.106L637.807 482.637ZM634.722 481.606L636.287 482.229L635.236 480.827L631.744 475.614L628.818 479.311L634.722 481.606Z" fill="#313131"/>
<path d="M620.455 482.775C621.558 482.459 622.68 482.454 623.82 482.76C624.96 483.065 626.094 483.776 627.177 484.678C628.259 485.579 629.006 486.594 629.416 487.722C629.827 488.851 629.927 489.998 629.717 491.164C629.506 492.33 628.915 493.394 628.16 494.312C627.551 495.065 626.631 495.837 625.591 496.679L625.083 497.052L622.665 494.673L623.515 493.78L625.643 494.962C625.859 494.918 626.195 494.804 626.582 494.5C626.943 494.291 627.356 493.893 627.699 493.373C628.257 492.81 628.556 492.075 628.569 491.264C628.678 490.478 628.476 489.711 627.989 488.868C627.502 488.024 626.92 487.155 625.907 486.375C624.989 485.619 624.141 484.985 623.216 484.635C622.291 484.285 621.41 484.151 620.573 484.232C619.737 484.314 619.014 484.731 618.404 485.485C617.967 485.978 617.649 486.403 617.547 486.783C617.35 487.137 617.369 487.448 617.293 487.733L618.146 489.49L617.226 490.262L615.543 488.181C615.689 488.016 615.886 487.662 616.134 487.117C616.356 486.667 616.553 486.313 616.75 485.958C616.947 485.603 617.264 485.179 617.702 484.685C618.337 483.837 619.352 483.09 620.455 482.775Z" fill="#313131"/>
<path d="M616.54 502.708C616.855 503.811 616.885 504.838 616.631 505.788C616.376 506.739 615.932 507.638 615.132 508.34C614.282 509.233 613.318 509.79 612.335 510.036C611.353 510.282 610.256 510.192 609.236 509.816C608.216 509.441 607.178 508.756 606.19 507.88C605.133 506.884 604.317 505.748 603.932 504.525C603.521 503.396 603.326 502.223 603.606 501.178C603.791 500.107 604.357 499.138 605.086 498.315C605.937 497.422 606.901 496.866 607.909 496.525C608.891 496.279 609.988 496.369 611.008 496.744C612.027 497.119 613.066 497.805 614.054 498.681L616.167 496.497L612.198 492.683L610.916 493.664L610.283 492.985L613.83 489.25L614.489 489.834L613.537 491.107L621.874 499.146L623.035 498.235L623.668 498.914L620.146 502.554L619.513 501.875L620.465 500.602L616.825 497.081L614.712 499.265C615.693 500.546 616.224 501.605 616.54 502.708ZM615.365 504.43C615.075 503.232 614.215 501.881 612.759 500.473C611.467 499.21 610.144 498.448 608.883 498.212C607.622 497.976 606.519 498.291 605.668 499.184C604.818 500.077 604.563 501.027 604.854 502.225C605.144 503.423 606.004 504.774 607.555 506.208C608.846 507.471 610.075 508.208 611.31 508.539C612.546 508.87 613.554 508.529 614.404 507.636C615.254 506.744 615.535 505.698 615.365 504.43Z" fill="#313131"/>
<path d="M598.268 513.498C597.482 513.389 596.437 513.109 595.201 512.778C594.346 512.549 593.681 512.371 593.206 512.244C592.826 512.142 592.515 512.16 592.274 512.3L591.577 512.622L590.944 511.943L592.593 510.348C592.834 510.209 593.17 510.095 593.835 510.273C594.406 510.426 595.261 510.655 596.401 510.961C597.611 511.387 598.562 511.642 599.347 511.75C600.013 511.928 600.539 511.866 600.831 511.537L601.656 510.739L598.022 506.812L596.646 507.767L596.013 507.088L599.794 503.62L600.427 504.299L599.406 505.451L607.305 513.984L608.561 513.099L609.194 513.777L605.533 517.176L604.9 516.497L605.852 515.225L602.219 511.297L601.007 512.399L601.899 518.953L603.155 518.067L603.788 518.746L600.394 521.911L599.761 521.232L600.687 520.054L599.941 513.335C599.77 513.595 599.054 513.607 598.268 513.498Z" fill="#313131"/>
<path d="M588.988 514.678C590.041 514.553 591.111 514.738 592.08 515.303C593.17 515.799 594.062 516.649 594.999 517.715C595.936 518.781 596.536 519.96 596.827 521.159C597.117 522.357 597.122 523.478 596.747 524.498C596.371 525.518 595.806 526.487 594.886 527.259C593.433 528.5 591.874 528.999 590.302 528.781C588.731 528.564 587.268 527.561 585.768 525.936C584.831 524.871 584.231 523.691 583.941 522.493C583.65 521.295 583.646 520.173 584.046 519.058C584.352 517.918 584.986 517.069 585.906 516.297C586.903 515.24 587.936 514.804 588.988 514.678ZM595.55 523.261C595.381 521.993 594.641 520.573 593.305 519.095C592.065 517.642 590.862 516.81 589.652 516.384C588.442 515.958 587.364 516.178 586.444 516.951C585.524 517.723 585.149 518.743 585.319 520.01C585.488 521.278 586.228 522.699 587.538 524.272C588.779 525.725 589.982 526.556 591.192 526.982C592.427 527.313 593.505 527.093 594.425 526.321C595.345 525.549 595.72 524.529 595.55 523.261Z" fill="#313131"/>
<path d="M586.857 532.136L588.182 531.371L588.79 532.145L586.855 533.663C586.494 533.872 586.081 534.271 585.643 534.765C585.231 535.163 584.844 535.467 584.603 535.606C583.201 536.657 582.142 537.188 581.21 537.244C580.279 537.3 579.474 536.88 578.867 536.107C578.329 535.453 578.032 534.661 578.046 533.849C578.059 533.038 578.358 532.303 578.942 531.645C578.022 532.417 577.109 532.784 576.203 532.744C575.296 532.705 574.492 532.286 573.885 531.512C573.138 530.497 572.822 529.394 573.033 528.228C573.243 527.062 574.196 525.79 575.743 524.575C576.13 524.271 576.492 524.062 576.758 523.828C577.532 523.221 578.014 522.942 578.16 522.778L580.095 521.259L580.607 522.007L579.491 523.134L586.857 532.136ZM576.471 525.279C575.457 526.026 574.942 526.805 574.834 527.59C574.725 528.376 574.927 529.143 575.534 529.917C576.142 530.691 576.756 531.059 577.447 531.142C578.137 531.226 578.835 530.903 579.729 530.226C580.744 529.48 581.398 528.942 581.569 528.682L578.158 524.305C577.778 524.203 577.271 524.576 576.471 525.279ZM581.403 530.063L580.629 530.671C579.975 531.209 579.607 531.823 579.524 532.514C579.441 533.205 579.668 533.877 580.301 534.556C580.839 535.209 581.453 535.577 582.049 535.635C582.644 535.693 583.342 535.37 584.236 534.693C584.623 534.39 584.915 534.06 585.302 533.757L585.569 533.522L582.392 529.412C582.056 529.526 581.79 529.76 581.403 530.063Z" fill="#313131"/>
<g style="mix-blend-mode:overlay">
<circle cx="172.196" cy="64.1506" r="2" fill="#313131"/>
</g>
<g style="mix-blend-mode:overlay">
<circle cx="576.695" cy="38.5214" r="2" fill="#313131"/>
</g>
</g>
</svg>
